<?xml version="1.0" encoding="UTF-8" standalone="no"?>
<!DOCTYPE svg PUBLIC "-//W3C//DTD SVG 1.1//EN" "http://www.w3.org/Graphics/SVG/1.1/DTD/svg11.dtd">
<svg width="100%" height="100%" viewBox="0 0 596 842" version="1.1" xmlns="http://www.w3.org/2000/svg" xmlns:xlink="http://www.w3.org/1999/xlink" xml:space="preserve" xmlns:serif="http://www.serif.com/" style="fill-rule:evenodd;clip-rule:evenodd;">
    <g transform="matrix(1,0,0,1,0,0.109985)">
        <rect x="0" y="-0.11" width="595.28" height="841.89" style="fill:none;"/>
    </g>
    <g transform="matrix(2.5713,0,0,2.5713,-259.736,-213.918)">
        <g transform="matrix(1,0,0,1,0,-284.353)">
            <path d="M192.413,458.797C192.442,459.093 192.886,459.051 192.858,458.755C192.83,458.458 192.385,458.5 192.413,458.797ZM214.609,666.407L214.084,667.572L151.91,667.785C151.917,667.37 152.397,637.856 151.91,608.149C151.426,578.621 149.974,548.928 149.893,547.297L136.156,534.3L121.283,517.316C120.647,505.712 126.604,494.74 136.682,488.952C139.198,487.507 141.886,486.389 144.622,485.425C152.648,482.596 166.076,478.145 177.284,474.979C181.428,483.756 188.401,490.884 197.084,495.219C202.513,497.929 208.456,499.453 214.519,499.691L214.609,666.407Z" style="fill:rgb(239,95,167);fill-rule:nonzero;stroke:black;stroke-width:0.39px;"/>
        </g>
        <g transform="matrix(1,0,0,1,0,-284.353)">
            <path d="M236.805,458.797C236.777,459.093 236.332,459.051 236.36,458.755C236.388,458.458 236.833,458.5 236.805,458.797ZM214.609,666.407L215.134,667.572L277.308,667.785C277.301,667.37 276.821,637.856 277.308,608.149C277.792,578.621 279.244,548.928 279.325,547.297L293.062,534.3L307.935,517.316C308.525,505.722 302.581,494.772 292.536,488.952C290.025,487.496 287.339,486.37 284.596,485.425C276.049,482.48 262.18,478.706 250.308,476.897C246.358,484.786 239.991,491.205 232.134,495.219C226.725,497.982 220.77,499.509 214.699,499.691L214.609,666.407Z" style="fill:rgb(239,95,167);fill-rule:nonzero;stroke:black;stroke-width:0.39px;"/>
        </g>
        <g transform="matrix(1,0,0,1,0,-243.887)">
            <path d="M201.419,460.864L229.669,460.864L229.669,624.912C224.73,624.44 219.77,624.216 214.809,624.241C210.338,624.263 205.87,624.487 201.419,624.912L201.419,460.864Z" style="fill:rgb(239,95,167);fill-rule:nonzero;"/>
        </g>
        <g transform="matrix(5.25385,0,0,5.25385,-1205.93,-3033.45)">
            <text x="266.075px" y="646.879px" style="font-family:'ArialMT', 'Arial', sans-serif;font-size:12px;">C</text>
        </g>
    </g>
    <g transform="matrix(2.64881,0,0,2.64881,-285.776,-245.145)">
        <g opacity="0.27">
            <g transform="matrix(-0.834266,-0.551362,-0.551362,0.834266,839.405,-149.32)">
                <path d="M270.728,550.43C234.485,565.873 205.104,610.33 205.104,649.726C205.104,689.123 234.485,708.541 270.728,693.097C306.972,677.654 336.353,633.197 336.353,593.801C336.353,554.404 306.972,534.987 270.728,550.43Z" style="fill:white;fill-rule:nonzero;stroke:black;stroke-width:0.38px;"/>
            </g>
        </g>
    </g>
</svg>
