<?xml version="1.0" encoding="UTF-8" standalone="no"?>
<!DOCTYPE svg PUBLIC "-//W3C//DTD SVG 1.1//EN" "http://www.w3.org/Graphics/SVG/1.1/DTD/svg11.dtd">
<svg width="100%" height="100%" viewBox="0 0 596 842" version="1.1" xmlns="http://www.w3.org/2000/svg" xmlns:xlink="http://www.w3.org/1999/xlink" xml:space="preserve" xmlns:serif="http://www.serif.com/" style="fill-rule:evenodd;clip-rule:evenodd;stroke-linejoin:round;stroke-miterlimit:2;">
    <g transform="matrix(1,0,0,1,0,0.109985)">
        <rect x="0" y="-0.11" width="595.28" height="841.89" style="fill:none;"/>
    </g>
    <g transform="matrix(2.5771,0,0,2.5771,-226.726,-947.417)">
        <path d="M127.951,458.429C127.646,458.429 127.375,458.54 127.166,458.736C126.958,458.931 126.84,459.186 126.84,459.473L126.84,517.535C126.84,528.718 122.412,536.584 117.984,541.653C113.555,546.722 109.128,548.996 109.128,548.996C108.859,549.133 108.616,549.377 108.44,549.658C108.264,549.939 108.155,550.258 108.155,550.545L108.155,666.147C108.155,666.434 108.273,666.689 108.482,666.884C108.69,667.08 108.961,667.191 109.266,667.191L248.534,667.191C248.839,667.191 249.11,667.08 249.319,666.884C249.527,666.689 249.645,666.434 249.645,666.147L249.645,550.545C249.645,550.258 249.536,549.94 249.36,549.658C249.184,549.377 248.941,549.133 248.672,548.996C248.672,548.996 244.244,546.722 239.816,541.653C235.388,536.584 230.96,528.718 230.96,517.535L230.96,459.473C230.96,459.186 230.842,458.931 230.634,458.736C230.426,458.54 230.154,458.429 229.849,458.429L211.459,458.429C211.154,458.429 210.892,458.543 210.715,458.729C210.539,458.915 210.449,459.172 210.487,459.456C202.678,468.462 190.938,473.65 178.572,473.56C166.435,473.472 154.973,468.3 147.313,459.456C147.351,459.172 147.261,458.915 147.085,458.729C146.908,458.543 146.646,458.429 146.341,458.429L127.951,458.429Z" style="fill:rgb(248,186,0);fill-rule:nonzero;stroke:black;stroke-width:0.39px;"/>
    </g>
    <g transform="matrix(2.76483,0,0,2.76483,-896.544,-223.766)">
        <g opacity="0.27">
            <g transform="matrix(-0.834266,-0.551362,-0.551362,0.834266,1205.71,-56.8127)">
                <path d="M467.785,559.23C431.541,574.673 402.16,619.13 402.16,658.526C402.16,697.923 431.541,717.341 467.785,701.897C504.028,686.454 533.409,641.997 533.409,602.601C533.409,563.204 504.028,543.786 467.785,559.23Z" style="fill:white;fill-rule:nonzero;stroke:black;stroke-width:0.36px;stroke-linejoin:miter;stroke-miterlimit:4;"/>
            </g>
        </g>
    </g>
    <g transform="matrix(13.97,0,0,13.97,-2635.76,-7982.1)">
        <text x="202.325px" y="623.702px" style="font-family:'ArialMT', 'Arial', sans-serif;font-size:12px;">B</text>
    </g>
</svg>
