<?xml version="1.0" encoding="UTF-8" standalone="no"?>
<!DOCTYPE svg PUBLIC "-//W3C//DTD SVG 1.1//EN" "http://www.w3.org/Graphics/SVG/1.1/DTD/svg11.dtd">
<svg width="100%" height="100%" viewBox="0 0 596 842" version="1.1" xmlns="http://www.w3.org/2000/svg" xmlns:xlink="http://www.w3.org/1999/xlink" xml:space="preserve" xmlns:serif="http://www.serif.com/" style="fill-rule:evenodd;clip-rule:evenodd;">
    <g transform="matrix(1,0,0,1,0,0.109985)">
        <rect x="0" y="-0.11" width="595.28" height="841.89" style="fill:none;"/>
    </g>
    <g transform="matrix(2.56481,0,0,2.56481,-757.369,-212.789)">
        <g transform="matrix(1,0,0,1,0,-284.259)">
            <path d="M315.661,472.595C315.813,472.694 315.954,472.508 316.097,472.38C316.29,472.206 316.586,472.211 316.744,472.395C317.102,472.815 316.376,473.379 316.108,472.93C315.983,472.722 316.249,472.459 316.107,472.255C315.896,471.95 315.347,472.39 315.661,472.595ZM411.027,667.691L341.672,667.691C341.672,667.691 341.339,637.351 341.005,606.794C340.671,576.237 340.337,545.463 340.337,544.596L351.848,545.325L351.552,510.097L351.323,470.917L368.686,469.859L369.141,458.458L388.035,459.572C387.518,464.497 388.684,469.449 391.353,473.663C395.446,480.126 402.553,484.206 410.345,484.565L411.027,667.691Z" style="fill:rgb(0,228,207);fill-rule:nonzero;stroke:black;stroke-width:0.39px;"/>
        </g>
        <g transform="matrix(1,0,0,1,0,-283.201)">
            <path d="M507.668,472.065C507.518,472.169 507.374,471.982 507.231,471.851C507.038,471.672 506.743,471.682 506.585,471.866C506.227,472.286 506.96,472.862 507.221,472.401C507.34,472.192 507.086,471.93 507.221,471.725C507.427,471.413 507.974,471.852 507.668,472.065ZM410.851,666.046L481.656,667.162C481.656,667.162 481.99,636.822 482.324,606.265C482.657,575.708 482.991,544.934 482.991,544.067L471.48,544.796L471.777,509.568L472.005,470.387L454.643,469.33L454.188,457.929L435.293,459.043C435.873,463.971 434.701,468.942 431.975,473.134C427.141,480.57 418.326,484.571 409.38,483.362L410.851,666.046Z" style="fill:rgb(0,228,207);fill-rule:nonzero;stroke:black;stroke-width:0.39px;"/>
        </g>
        <g transform="matrix(1,0,0,1,3.4708,-259.418)">
            <path d="M361.529,461.418L461.529,461.418L461.529,639.502C444.722,639.609 427.915,639.674 411.107,639.696C394.705,639.718 378.303,639.701 361.901,639.643L361.529,461.418Z" style="fill:rgb(0,228,207);fill-rule:nonzero;"/>
        </g>
        <g transform="matrix(5.44679,0,0,5.44679,-1188.19,-3109.25)">
            <text x="289.257px" y="638.757px" style="font-family:'ArialMT', 'Arial', sans-serif;font-size:12px;">D</text>
        </g>
    </g>
    <g transform="matrix(2.64881,0,0,2.64881,-853.527,-183.358)">
        <g opacity="0.27">
            <g transform="matrix(-0.834266,-0.551362,-0.551362,0.834266,1205.71,-56.8123)">
                <path d="M467.785,559.23C431.541,574.673 402.16,619.13 402.16,658.526C402.16,697.923 431.541,717.341 467.785,701.897C504.028,686.454 533.409,641.997 533.409,602.601C533.409,563.204 504.028,543.787 467.785,559.23Z" style="fill:white;fill-rule:nonzero;stroke:black;stroke-width:0.38px;"/>
            </g>
        </g>
    </g>
</svg>
