<?xml version="1.0" ?><!DOCTYPE svg  PUBLIC '-//W3C//DTD SVG 1.1//EN'  'http://www.w3.org/Graphics/SVG/1.1/DTD/svg11.dtd'><svg enable-background="new 0 0 68 68" id="Layer_1" version="1.1" viewBox="0 0 68 68" xml:space="preserve" xmlns="http://www.w3.org/2000/svg" xmlns:xlink="http://www.w3.org/1999/xlink"><g><path d="M30.93754,4.92221c0.2749-0.53998,0.56311-0.98865,0.86115-1.3656c-1.25659,0.35382-2.48718,1.01105-3.6463,1.97595   c-3.91602,3.26074-5.98633,8.98047-5.98633,16.54395c-0.00684,0.11328-0.48633,7.88281,4.75488,17.45703   c0.93164,1.69922,1.98535,3.76074,2.73926,6.16309c0.66309,2.1084,0.95996,3.89844,0.8877,5.33301h1.26581   c0.03369-1.35559-0.07861-3.06018-0.3537-5.11719c-0.30859-2.3252-0.74707-4.35059-1.13574-6.02539   c-2.27148-9.78418-2.05762-17.74609-2.05566-17.82617C28.26859,14.17124,29.16605,8.39975,30.93754,4.92221z"/><path d="M36.53421,45.91245c-0.27338,2.05475-0.3855,3.7594-0.35175,5.11719h1.26581   c-0.07227-1.43457,0.22461-3.22461,0.8877-5.33301c0.75391-2.40234,1.80762-4.46387,2.73926-6.16309   c5.25195-9.59375,4.76172-17.34375,4.75586-17.4209c-0.00098-7.59961-2.07129-13.31934-5.9873-16.5791   c-1.15948-0.96582-2.39044-1.62329-3.6474-1.97711c0.29797,0.37695,0.5863,0.82562,0.86127,1.36578   c1.77148,3.47656,2.66992,9.24805,2.66992,17.1543c0.00195,0.06445,0.21582,8.02637-2.05566,17.81054   C37.28519,41.55209,36.84769,43.56967,36.53421,45.91245z"/><path d="M53.38675,22.1351c-0.00293-7.68262-3.25684-13.22852-9.6748-16.54199c-1.40521-0.72559-2.87494-1.27582-4.37701-1.66614   c0.38983,0.25342,0.77502,0.52625,1.14948,0.83801c2.89453,2.40918,6.3457,7.36914,6.3457,17.31152   c0.02246,0.29102,0.51465,8.08789-4.87793,17.9375c-0.9082,1.65723-1.93359,3.66309-2.66309,5.98145   c-0.63452,2.02167-0.89545,3.68719-0.81824,5.00452h-1.01648c0.00256,0.01788-0.00189,0.03522,0.00269,0.0531l1.26111,4.91003   h-4.22009v-4.93347h0.6748c-0.03125-1.40527,0.09277-3.16699,0.37012-5.25c0.31836-2.38379,0.7627-4.43066,1.1543-6.11914   c2.24316-9.65918,2.0332-17.49121,2.03027-17.56836c0-9.66504-1.39258-14.42383-2.56055-16.7168   c-0.69727-1.36816-1.4668-2.12109-2.16895-2.12207c-0.70215,0-1.47266,0.75391-2.16992,2.12207   c-1.16797,2.29395-2.55957,7.05371-2.55957,16.70117c-0.00293,0.09375-0.21094,7.93359,2.03027,17.58398   c0.39355,1.69824,0.83789,3.75293,1.15332,6.11914c0.27734,2.08496,0.40234,3.84766,0.37109,5.25h0.6748v4.93347h-4.22015   l1.25726-4.90417c0.0036-0.0141,0.00226-0.02789,0.00214-0.04175h-1.01196c0.08032-1.31976-0.18115-2.99176-0.8183-5.02173   c-0.72949-2.31836-1.75488-4.32422-2.66309-5.98145c-5.39258-9.84961-4.90039-17.64648-4.87695-17.97363   c-0.00098-9.90625,3.4502-14.86621,6.34473-17.27637c0.37372-0.31097,0.75818-0.58319,1.14716-0.83612   c-1.50098,0.39032-2.9696,0.94019-4.37372,1.66522c-6.41895,3.31348-9.67285,8.85938-9.67285,16.48438   c-0.01172,0.13672-0.79492,8.2207,8.14942,17.92676c0.95117,1.0332,1.66895,1.92383,2.25781,2.80371   c1.40039,2.09082,3.0791,5.12012,3.125,7.68066c0.00488,0.30859,0.2207,0.54199,0.5,0.54199h0.8656l-1.23279,4.80859   c-0.01068,0.04181-0.00641,0.08264-0.00635,0.1239h-0.0614c-0.80023,0-1.54413,0.54327-1.67688,1.3324   c-0.16876,1.00336,0.60132,1.87463,1.58575,1.87463v4.6499c0,0.51178,0.41492,0.9267,0.92676,0.9267h9.90582   c0.51184,0,0.92676-0.41492,0.92676-0.9267v-4.6499c0.98444,0,1.75452-0.87128,1.58575-1.87463   c-0.13275-0.78912-0.87665-1.3324-1.67688-1.3324h-0.06158c0.00006-0.04126,0.00433-0.08209-0.00635-0.1239l-1.23505-4.80859   h0.86884c0.2793,0,0.49414-0.2334,0.49902-0.54199c0.04688-2.56152,1.72559-5.59082,3.125-7.68066   c0.59082-0.88184,1.30859-1.77246,2.25977-2.80371C54.20707,30.26792,53.39652,22.21518,53.38675,22.1351z"/></g></svg>