<?xml version="1.0" encoding="UTF-8" standalone="no"?>
<!DOCTYPE svg PUBLIC "-//W3C//DTD SVG 1.1//EN" "http://www.w3.org/Graphics/SVG/1.1/DTD/svg11.dtd">
<svg width="100%" height="100%" viewBox="0 0 90 54" version="1.1" xmlns="http://www.w3.org/2000/svg" xmlns:xlink="http://www.w3.org/1999/xlink" xml:space="preserve" xmlns:serif="http://www.serif.com/" style="fill-rule:evenodd;clip-rule:evenodd;stroke-linejoin:round;stroke-miterlimit:2;">
    <g transform="matrix(0.223245,0,0,0.223245,0,0)">
        <path d="M298.515,118.804C302.114,116.726 306.028,116.767 307.258,118.897C307.436,119.206 307.541,119.544 307.591,119.899C309.054,118.251 310.256,116.403 311.174,114.426C311.91,114.011 312.658,113.314 313.268,112.131C315.658,107.495 314.56,97.899 312.63,94.558C312.008,93.481 310.832,92.769 309.382,92.306C303.505,83.637 292.157,79.999 282.113,84.184C277.52,86.098 273.901,89.359 271.514,93.316L290.719,95.79C289.962,97.157 289.633,98.802 289.728,100.704L269.35,98.079C267.77,102.993 267.859,108.471 270,113.608C274.144,123.553 284.595,128.946 294.777,127.093C294.56,126.899 294.373,126.677 294.226,126.423C292.995,124.293 294.916,120.882 298.515,118.804ZM293.559,96.876C294.583,95.4 296.228,95.147 296.343,95.13L296.401,95.122C302.187,94.196 309.045,94.35 310.031,96.058C311.536,98.663 312.416,107.233 310.6,110.756C310.009,111.903 309.412,111.96 309.187,111.982C304.695,112.408 294.852,110.729 293.041,102.807C292.451,100.218 292.625,98.222 293.559,96.876Z" style="fill-rule:nonzero;"/>
        <path d="M23.643,188.33C32.721,188.126 74.781,170.792 94.555,162.437L95.819,162.969C97.307,150.517 92.081,140.974 88.627,136.19C74.856,136.661 33.058,138.088 22.216,138.443C-3.905,139.298 8.824,156.879 16.302,165.217C23.779,173.556 11.678,188.599 23.643,188.33ZM15.668,145.214C16.167,145.213 65.813,145.056 85.575,141.587L86.094,144.542C66.078,148.055 17.724,148.209 15.676,148.214L15.668,145.214Z" style="fill-rule:nonzero;"/>
        <path d="M99.646,164.581L141.582,182.236C143.137,182.891 144.786,183.215 146.432,183.215C148.484,183.215 150.531,182.71 152.38,181.71L196.755,157.705C197.83,157.276 198.992,156.758 200.261,156.139C211.721,149.454 226.342,145.992 238.842,143.454L235.768,132.423C234.244,126.952 237.455,121.261 242.925,119.736C246.627,118.704 250.563,119.802 253.198,122.603C254.332,123.808 255.167,125.292 255.612,126.895L267.658,170.119L304.412,194.205C305.093,194.65 305.722,195.177 306.278,195.768C308.74,198.385 309.605,201.99 308.764,205.319L320.062,205.319C322.445,205.319 324.395,207.269 324.395,209.652C324.395,212.035 322.445,213.985 320.062,213.985L276.062,213.985C273.679,213.985 271.729,212.035 271.729,209.652C271.729,207.269 273.679,205.319 276.062,205.319L283.787,205.319L270.884,196.864L178.645,202.36L157.895,191.798C152.395,191.798 147.895,196.298 147.895,201.798L147.895,228.798C147.895,234.298 152.395,238.798 157.895,238.798L178.645,228.236L355.895,238.798C355.895,238.798 403.145,236.548 403.145,215.298C403.145,194.048 355.895,191.798 355.895,191.798L320.298,193.919C319.693,192.879 318.851,191.957 317.775,191.254L280.298,166.695L273.501,142.306C280.883,146.357 286.583,147.823 290.951,147.822C295.674,147.822 298.851,146.12 300.942,144.16C305.472,139.912 306.424,132.905 305.167,128.296C308,126.216 309.387,123.325 308.298,121.439C308.123,121.135 307.887,120.879 307.612,120.66C305.954,119.346 302.642,119.564 299.556,121.346C296.841,122.913 295.083,125.239 294.91,127.201C294.854,127.84 294.963,128.441 295.265,128.964C296.211,130.602 298.746,130.999 301.503,130.152C302.04,133.269 301.451,138.2 298.206,141.242C294.408,144.806 287.981,144.704 279.62,140.95C277.207,139.866 274.651,138.478 271.972,136.82L268.019,122.637C268.008,122.596 267.991,122.557 267.979,122.517C266.238,114.198 257.554,105.383 243.055,106L246.14,104.907C254.206,102.05 258.553,93.283 256.086,85.174C256.958,84.6 257.771,84.015 258.546,83.424C259.786,82.566 260.78,81.711 261.578,80.874C267.997,74.797 269.77,68.33 268.3,63.756C266.41,57.873 259.846,54.916 250.744,55.845C243.91,56.543 240.867,59.053 238.929,62.382C229.977,63.307 228.197,67.239 226.164,71.787C225.056,74.266 223.82,77.027 221.083,79.833L160.99,101.115C152.695,104.053 163.377,134.217 171.672,131.279L182.938,127.289C179.645,131.15 178.55,135.17 178.644,139.078L145.755,156.87L98.111,136.81C96.524,136.141 94.877,135.826 93.257,135.827C97.076,141.735 101.553,151.766 99.646,164.581ZM173.563,221.672L156.063,221.672C154.871,221.672 153.896,220.697 153.896,219.505C153.896,218.313 154.871,217.338 156.063,217.338L173.563,217.338C174.755,217.338 175.73,218.313 175.73,219.505C175.73,220.697 174.754,221.672 173.563,221.672ZM175.729,211.089C175.729,212.281 174.754,213.256 173.562,213.256L156.062,213.256C154.87,213.256 153.895,212.281 153.895,211.089C153.895,209.897 154.87,208.922 156.062,208.922L173.562,208.922C174.754,208.922 175.729,209.897 175.729,211.089ZM330.396,200.818L353.896,197.985C353.896,197.985 374.229,199.818 380.729,202.985L354.062,200.985L329.77,202.86L330.396,200.818ZM236.963,74.294C238.043,72.251 238.795,70.3 239.478,68.52C239.938,67.322 240.361,66.233 240.821,65.244C251.639,64.62 260.097,68.764 261.348,73.243C261.859,75.074 261.177,76.971 259.404,78.823C258.665,79.509 257.847,80.192 256.966,80.87C256.325,81.319 255.614,81.761 254.843,82.197C251.402,75.87 244.025,72.548 236.963,74.294ZM251.051,58.828C258.638,58.054 264.021,60.238 265.447,64.672C266.153,66.868 265.846,69.653 264.292,72.645C264.274,72.574 264.257,72.504 264.238,72.437C262.535,66.339 253.409,62.132 242.757,62.185C244.367,60.406 246.751,59.268 251.051,58.828ZM228.905,73.011C230.647,69.113 231.788,66.594 237.397,65.611C237.154,66.211 236.917,66.822 236.678,67.445C235.684,70.032 234.592,72.865 232.557,75.77L226.365,77.963C227.473,76.208 228.224,74.532 228.905,73.011Z" style="fill-rule:nonzero;"/>
        <path d="M57.458,229.047C57.458,233.143 60.779,236.464 64.875,236.464C68.971,236.464 72.292,233.143 72.292,229.047C72.292,224.951 68.971,221.63 64.875,221.63C60.779,221.631 57.458,224.951 57.458,229.047ZM65.042,224.381C67.895,224.381 70.209,226.694 70.209,229.548C70.209,232.402 67.896,234.715 65.042,234.715C62.188,234.715 59.875,232.402 59.875,229.548C59.875,226.694 62.188,224.381 65.042,224.381Z" style="fill-rule:nonzero;"/>
        <path d="M86.708,240.631C90.137,240.631 92.916,237.851 92.916,234.423C92.916,230.995 90.136,228.215 86.708,228.215C83.28,228.215 80.5,230.995 80.5,234.423C80.5,237.851 83.28,240.631 86.708,240.631ZM86.792,230.672C89.139,230.672 91.042,232.575 91.042,234.922C91.042,237.269 89.139,239.172 86.792,239.172C84.445,239.172 82.542,237.269 82.542,234.922C82.542,232.575 84.444,230.672 86.792,230.672Z" style="fill-rule:nonzero;"/>
        <path d="M87.5,220.297C90.952,220.297 93.75,217.499 93.75,214.047C93.75,210.595 90.952,207.797 87.5,207.797C84.048,207.797 81.25,210.595 81.25,214.047C81.25,217.499 84.048,220.297 87.5,220.297ZM87.479,209.797C89.93,209.797 91.917,211.784 91.917,214.235C91.917,216.686 89.93,218.673 87.479,218.673C85.028,218.673 83.041,216.686 83.041,214.235C83.041,211.784 85.028,209.797 87.479,209.797Z" style="fill-rule:nonzero;"/>
        <path d="M106.375,191.297C102.923,191.297 100.125,194.095 100.125,197.547C100.125,200.999 102.923,203.797 106.375,203.797C109.827,203.797 112.625,200.999 112.625,197.547C112.625,194.095 109.827,191.297 106.375,191.297ZM106.354,202.172C103.903,202.172 101.916,200.185 101.916,197.734C101.916,195.283 103.903,193.296 106.354,193.296C108.805,193.296 110.792,195.283 110.792,197.734C110.792,200.185 108.805,202.172 106.354,202.172Z" style="fill-rule:nonzero;"/>
        <path d="M118.346,222.331C115.93,222.331 113.971,224.29 113.971,226.706C113.971,229.122 115.93,231.081 118.346,231.081C120.762,231.081 122.721,229.122 122.721,226.706C122.721,224.29 120.762,222.331 118.346,222.331ZM118.396,229.985C116.739,229.985 115.396,228.642 115.396,226.985C115.396,225.328 116.739,223.985 118.396,223.985C120.053,223.985 121.396,225.328 121.396,226.985C121.396,228.642 120.053,229.985 118.396,229.985Z" style="fill-rule:nonzero;"/>
        <path d="M110.346,210.081C107.93,210.081 105.971,212.04 105.971,214.456C105.971,216.872 107.93,218.831 110.346,218.831C112.762,218.831 114.721,216.872 114.721,214.456C114.721,212.04 112.762,210.081 110.346,210.081ZM110.396,217.735C108.739,217.735 107.396,216.392 107.396,214.735C107.396,213.078 108.739,211.735 110.396,211.735C112.053,211.735 113.396,213.078 113.396,214.735C113.396,216.392 112.053,217.735 110.396,217.735Z" style="fill-rule:nonzero;"/>
        <path d="M103.721,233.581C106.137,233.581 108.096,231.622 108.096,229.206C108.096,226.79 106.137,224.831 103.721,224.831C101.305,224.831 99.346,226.79 99.346,229.206C99.346,231.622 101.305,233.581 103.721,233.581ZM103.771,226.485C105.428,226.485 106.771,227.828 106.771,229.485C106.771,231.142 105.428,232.485 103.771,232.485C102.114,232.485 100.771,231.142 100.771,229.485C100.771,227.828 102.114,226.485 103.771,226.485Z" style="fill-rule:nonzero;"/>
        <path d="M130.563,224.651C132.22,224.651 133.563,223.308 133.563,221.651C133.563,219.994 132.22,218.651 130.563,218.651C128.906,218.651 127.563,219.994 127.563,221.651C127.563,223.308 128.906,224.651 130.563,224.651ZM130.531,220.026C131.446,220.026 132.187,220.768 132.187,221.682C132.187,222.597 131.445,223.338 130.531,223.338C129.616,223.338 128.875,222.596 128.875,221.682C128.875,220.768 129.617,220.026 130.531,220.026Z" style="fill-rule:nonzero;"/>
        <path d="M125.302,202.36C123.645,202.36 122.302,203.703 122.302,205.36C122.302,207.017 123.645,208.36 125.302,208.36C126.959,208.36 128.302,207.017 128.302,205.36C128.302,203.703 126.959,202.36 125.302,202.36ZM125.271,207.047C124.356,207.047 123.615,206.305 123.615,205.391C123.615,204.477 124.357,203.735 125.271,203.735C126.185,203.735 126.927,204.477 126.927,205.391C126.927,206.305 126.186,207.047 125.271,207.047Z" style="fill-rule:nonzero;"/>
        <path d="M140.896,216.735C139.239,216.735 137.896,218.078 137.896,219.735C137.896,221.392 139.239,222.735 140.896,222.735C142.553,222.735 143.896,221.392 143.896,219.735C143.896,218.078 142.553,216.735 140.896,216.735ZM140.865,221.422C139.95,221.422 139.209,220.68 139.209,219.766C139.209,218.852 139.951,218.11 140.865,218.11C141.779,218.11 142.521,218.852 142.521,219.766C142.521,220.68 141.779,221.422 140.865,221.422Z" style="fill-rule:nonzero;"/>
        <path d="M137.427,206.954C135.77,206.954 134.427,208.297 134.427,209.954C134.427,211.611 135.77,212.954 137.427,212.954C139.084,212.954 140.427,211.611 140.427,209.954C140.427,208.297 139.084,206.954 137.427,206.954ZM137.396,211.641C136.481,211.641 135.74,210.899 135.74,209.985C135.74,209.071 136.482,208.329 137.396,208.329C138.31,208.329 139.052,209.071 139.052,209.985C139.052,210.899 138.311,211.641 137.396,211.641Z" style="fill-rule:nonzero;"/>
        <path d="M44.667,223.422C48.809,223.422 52.167,220.064 52.167,215.922C52.167,211.78 48.809,208.422 44.667,208.422C40.525,208.422 37.167,211.78 37.167,215.922C37.167,220.064 40.525,223.422 44.667,223.422ZM44.967,211.239C47.728,211.239 49.967,213.478 49.967,216.239C49.967,219 47.728,221.239 44.967,221.239C42.206,221.239 39.967,219 39.967,216.239C39.967,213.478 42.205,211.239 44.967,211.239Z" style="fill-rule:nonzero;"/>
        <path d="M69.417,198.714C66.241,198.714 63.667,201.288 63.667,204.464C63.667,207.64 66.241,210.214 69.417,210.214C72.593,210.214 75.167,207.64 75.167,204.464C75.167,201.288 72.592,198.714 69.417,198.714ZM69.533,208.464C67.462,208.464 65.783,206.785 65.783,204.714C65.783,202.643 67.462,200.964 69.533,200.964C71.604,200.964 73.283,202.643 73.283,204.714C73.283,206.785 71.604,208.464 69.533,208.464Z" style="fill-rule:nonzero;"/>
        <path d="M31.083,226.422C27.309,226.422 24.25,229.481 24.25,233.255C24.25,237.029 27.309,240.088 31.083,240.088C34.857,240.088 37.916,237.029 37.916,233.255C37.916,229.481 34.857,226.422 31.083,226.422ZM31.117,237.922C28.549,237.922 26.467,235.84 26.467,233.272C26.467,230.704 28.549,228.622 31.117,228.622C33.685,228.622 35.767,230.704 35.767,233.272C35.767,235.84 33.685,237.922 31.117,237.922Z" style="fill-rule:nonzero;"/>
        <path d="M5.75,226.214C8.926,226.214 11.5,223.64 11.5,220.464C11.5,217.288 8.926,214.714 5.75,214.714C2.574,214.714 0,217.288 0,220.464C0,223.64 2.574,226.214 5.75,226.214ZM5.975,216.931C8.023,216.931 9.683,218.591 9.683,220.639C9.683,222.687 8.023,224.347 5.975,224.347C3.927,224.347 2.267,222.687 2.267,220.639C2.267,218.591 3.927,216.931 5.975,216.931Z" style="fill-rule:nonzero;"/>
        <rect x="140.82" y="64.019" width="62.075" height="1.424"/>
        <rect x="127.888" y="72.561" width="62.075" height="1.424"/>
        <rect x="89.253" y="68.29" width="89.072" height="1.424"/>
        <path d="M305.033,210.985L320.062,210.985C320.785,210.985 321.395,210.374 321.395,209.652C321.395,208.93 320.785,208.319 320.062,208.319L307.468,208.319C307.438,208.367 307.412,208.417 307.381,208.465C306.737,209.448 305.939,210.289 305.033,210.985Z" style="fill-rule:nonzero;"/>
        <path d="M288.366,208.318L276.063,208.318C275.34,208.318 274.729,208.928 274.729,209.651C274.729,210.374 275.34,210.984 276.063,210.984L292.436,210.984L288.366,208.318Z" style="fill-rule:nonzero;"/>
        <path d="M294.382,209.511C298.077,211.932 303.036,210.899 305.458,207.204C307.88,203.508 306.848,198.544 303.151,196.128L265.674,171.569L253.396,127.511C252.211,123.252 247.798,120.766 243.542,121.952C239.285,123.138 236.797,127.55 237.983,131.806L251.067,178.761C251.417,180.018 252.066,181.16 252.947,182.096C253.375,182.551 253.859,182.958 254.389,183.305L294.382,209.511Z" style="fill-rule:nonzero;"/>
        <path d="M321.417,94.25C323.074,94.25 324.417,92.907 324.417,91.25C324.417,89.593 323.074,88.25 321.417,88.25C319.76,88.25 318.417,89.593 318.417,91.25C318.417,92.907 319.76,94.25 321.417,94.25ZM321.386,89.625C322.301,89.625 323.042,90.367 323.042,91.281C323.042,92.196 322.3,92.937 321.386,92.937C320.472,92.937 319.73,92.195 319.73,91.281C319.729,90.367 320.471,89.625 321.386,89.625Z" style="fill-rule:nonzero;"/>
        <path d="M319.667,76.958C319.667,79.374 321.626,81.333 324.042,81.333C326.458,81.333 328.417,79.374 328.417,76.958C328.417,74.542 326.458,72.583 324.042,72.583C321.626,72.583 319.667,74.542 319.667,76.958ZM324.092,74.237C325.749,74.237 327.092,75.58 327.092,77.237C327.092,78.894 325.749,80.237 324.092,80.237C322.435,80.237 321.092,78.894 321.092,77.237C321.092,75.58 322.435,74.237 324.092,74.237Z" style="fill-rule:nonzero;"/>
        <path d="M321.75,64.5C321.75,61.048 318.952,58.25 315.5,58.25C312.048,58.25 309.25,61.048 309.25,64.5C309.25,67.952 312.048,70.75 315.5,70.75C318.952,70.75 321.75,67.952 321.75,64.5ZM315.479,69.125C313.028,69.125 311.041,67.138 311.041,64.687C311.041,62.236 313.028,60.249 315.479,60.249C317.93,60.249 319.917,62.236 319.917,64.687C319.917,67.138 317.93,69.125 315.479,69.125Z" style="fill-rule:nonzero;"/>
        <path d="M317.458,53.083C320.887,53.083 323.666,50.303 323.666,46.875C323.666,43.446 320.886,40.667 317.458,40.667C314.03,40.667 311.25,43.447 311.25,46.875C311.25,50.304 314.03,53.083 317.458,53.083ZM317.542,43.125C319.889,43.125 321.792,45.028 321.792,47.375C321.792,49.722 319.889,51.625 317.542,51.625C315.195,51.625 313.292,49.722 313.292,47.375C313.292,45.028 315.195,43.125 317.542,43.125Z" style="fill-rule:nonzero;"/>
        <path d="M305,37.667C309.096,37.667 312.417,34.346 312.417,30.25C312.417,26.154 309.096,22.833 305,22.833C300.904,22.833 297.583,26.154 297.583,30.25C297.583,34.346 300.904,37.667 305,37.667ZM305.167,25.583C308.02,25.583 310.334,27.896 310.334,30.75C310.334,33.603 308.021,35.917 305.167,35.917C302.313,35.917 300,33.604 300,30.75C300,27.896 302.313,25.583 305.167,25.583Z" style="fill-rule:nonzero;"/>
        <path d="M216.33,25.567C216.33,28.743 218.904,31.317 222.08,31.317C225.256,31.317 227.83,28.743 227.83,25.567C227.83,22.391 225.256,19.817 222.08,19.817C218.904,19.817 216.33,22.391 216.33,25.567ZM225.947,25.817C225.947,27.888 224.268,29.567 222.197,29.567C220.126,29.567 218.447,27.888 218.447,25.817C218.447,23.746 220.126,22.067 222.197,22.067C224.268,22.067 225.947,23.746 225.947,25.817Z" style="fill-rule:nonzero;"/>
        <path d="M258,35.667C261.176,35.667 263.75,33.093 263.75,29.917C263.75,26.741 261.176,24.167 258,24.167C254.824,24.167 252.25,26.741 252.25,29.917C252.25,33.092 254.825,35.667 258,35.667ZM258.225,26.383C260.273,26.383 261.933,28.043 261.933,30.091C261.933,32.139 260.273,33.799 258.225,33.799C256.177,33.799 254.517,32.139 254.517,30.091C254.517,28.044 256.177,26.383 258.225,26.383Z" style="fill-rule:nonzero;"/>
        <path d="M265.083,13.667C268.857,13.667 271.916,10.608 271.916,6.834C271.916,3.06 268.857,0 265.083,0C261.309,0 258.25,3.059 258.25,6.833C258.25,10.607 261.31,13.667 265.083,13.667ZM265.117,2.2C267.685,2.2 269.767,4.282 269.767,6.85C269.767,9.418 267.685,11.5 265.117,11.5C262.549,11.5 260.467,9.418 260.467,6.85C260.467,4.282 262.549,2.2 265.117,2.2Z" style="fill-rule:nonzero;"/>
        <path d="M282.917,35.25C287.059,35.25 290.417,31.892 290.417,27.75C290.417,23.608 287.059,20.25 282.917,20.25C278.775,20.25 275.417,23.608 275.417,27.75C275.417,31.892 278.775,35.25 282.917,35.25ZM283.217,23.067C285.978,23.067 288.217,25.306 288.217,28.067C288.217,30.828 285.978,33.067 283.217,33.067C280.456,33.067 278.217,30.828 278.217,28.067C278.217,25.306 280.455,23.067 283.217,23.067Z" style="fill-rule:nonzero;"/>
        <path d="M242.472,22.917C245.648,22.917 248.222,20.343 248.222,17.167C248.222,13.991 245.648,11.417 242.472,11.417C239.296,11.417 236.722,13.991 236.722,17.167C236.722,20.342 239.296,22.917 242.472,22.917ZM242.697,13.633C244.745,13.633 246.405,15.293 246.405,17.341C246.405,19.389 244.745,21.049 242.697,21.049C240.649,21.049 238.989,19.389 238.989,17.341C238.989,15.294 240.649,13.633 242.697,13.633Z" style="fill-rule:nonzero;"/>
        <path d="M216.722,12.417C219.898,12.417 222.472,9.843 222.472,6.667C222.472,3.491 219.898,0.917 216.722,0.917C213.546,0.917 210.972,3.491 210.972,6.667C210.972,9.842 213.546,12.417 216.722,12.417ZM216.947,3.133C218.995,3.133 220.655,4.793 220.655,6.841C220.655,8.889 218.995,10.549 216.947,10.549C214.899,10.549 213.239,8.889 213.239,6.841C213.239,4.794 214.899,3.133 216.947,3.133Z" style="fill-rule:nonzero;"/>
        <path d="M199.695,23.403C202.458,23.403 204.697,21.164 204.697,18.401C204.697,15.638 202.458,13.399 199.695,13.399C196.932,13.399 194.693,15.638 194.693,18.401C194.693,21.163 196.932,23.403 199.695,23.403ZM199.891,15.327C201.673,15.327 203.117,16.771 203.117,18.553C203.117,20.335 201.673,21.779 199.891,21.779C198.109,21.779 196.665,20.335 196.665,18.553C196.665,16.771 198.109,15.327 199.891,15.327Z" style="fill-rule:nonzero;"/>
        <path d="M179.195,14.569C181.958,14.569 184.197,12.33 184.197,9.567C184.197,6.805 181.958,4.565 179.195,4.565C176.432,4.565 174.193,6.804 174.193,9.567C174.193,12.33 176.432,14.569 179.195,14.569ZM179.391,6.494C181.173,6.494 182.617,7.938 182.617,9.72C182.617,11.502 181.173,12.946 179.391,12.946C177.609,12.946 176.165,11.502 176.165,9.72C176.165,7.938 177.609,6.494 179.391,6.494Z" style="fill-rule:nonzero;"/>
    </g>
</svg>
