<?xml version="1.0" encoding="UTF-8" standalone="no"?>
<!DOCTYPE svg PUBLIC "-//W3C//DTD SVG 1.1//EN" "http://www.w3.org/Graphics/SVG/1.1/DTD/svg11.dtd">
<svg width="100%" height="100%" viewBox="0 0 150 85" version="1.1" xmlns="http://www.w3.org/2000/svg" xmlns:xlink="http://www.w3.org/1999/xlink" xml:space="preserve" xmlns:serif="http://www.serif.com/" style="fill-rule:evenodd;clip-rule:evenodd;stroke-linejoin:round;stroke-miterlimit:2;">
    <g transform="matrix(1,0,0,1,-180.486,-196.252)">
        <g id="path396" transform="matrix(0.078739,0,0,0.078739,166.275,180.799)">
            <path d="M1379.99,1266.65C1379.99,1267.75 1381.89,1268.15 1382.49,1267.25C1382.79,1266.75 1382.39,1266.25 1381.59,1266.25C1380.69,1266.25 1379.99,1266.45 1379.99,1266.65ZM858.291,1260.85C858.591,1261.15 859.491,1261.25 860.191,1260.95C860.991,1260.65 860.691,1260.35 859.591,1260.35C858.491,1260.25 857.891,1260.55 858.291,1260.85ZM1677.29,1248.85C1677.59,1249.15 1678.49,1249.25 1679.19,1248.95C1679.99,1248.65 1679.69,1248.35 1678.59,1248.35C1677.49,1248.25 1676.89,1248.55 1677.29,1248.85ZM1258.99,1232.25C1258.99,1232.75 1259.69,1233.25 1260.59,1233.25C1261.39,1233.25 1261.79,1232.75 1261.49,1232.25C1261.19,1231.65 1260.49,1231.25 1259.89,1231.25C1259.39,1231.25 1258.99,1231.65 1258.99,1232.25ZM1782.69,1206.95C1783.39,1207.15 1784.79,1207.15 1785.69,1206.95C1786.69,1206.65 1786.19,1206.45 1784.49,1206.45C1782.89,1206.45 1782.09,1206.65 1782.69,1206.95ZM1674.29,1196.85C1674.59,1197.15 1675.49,1197.25 1676.19,1196.95C1676.99,1196.65 1676.69,1196.35 1675.59,1196.35C1674.49,1196.25 1673.89,1196.55 1674.29,1196.85ZM1658.29,1194.85C1658.59,1195.15 1659.49,1195.25 1660.19,1194.95C1660.99,1194.65 1660.69,1194.35 1659.59,1194.35C1658.49,1194.25 1657.89,1194.55 1658.29,1194.85ZM397.791,1192.95C398.391,1193.15 399.591,1193.15 400.291,1192.95C400.891,1192.65 400.391,1192.45 398.991,1192.45C397.591,1192.45 397.091,1192.65 397.791,1192.95ZM476.091,1189.65C475.991,1190.75 476.291,1191.35 476.591,1190.95C476.891,1190.65 476.991,1189.75 476.691,1189.05C476.391,1188.25 476.091,1188.55 476.091,1189.65ZM535.291,1186.85C535.591,1187.15 536.491,1187.25 537.191,1186.95C537.991,1186.65 537.691,1186.35 536.591,1186.35C535.491,1186.25 534.891,1186.55 535.291,1186.85ZM700.291,1180.85C700.591,1181.15 701.491,1181.25 702.191,1180.95C702.991,1180.65 702.691,1180.35 701.591,1180.35C700.491,1180.25 699.891,1180.55 700.291,1180.85ZM715.791,1178.95C716.391,1179.15 717.591,1179.15 718.291,1178.95C718.891,1178.65 718.391,1178.45 716.991,1178.45C715.591,1178.45 715.091,1178.65 715.791,1178.95ZM690.791,1179.45C691.691,1180.35 692.291,1180.35 693.191,1179.45C694.091,1178.55 693.891,1178.25 691.991,1178.25C690.091,1178.25 689.891,1178.55 690.791,1179.45ZM622.291,1178.85C622.591,1179.15 623.491,1179.25 624.191,1178.95C624.991,1178.65 624.691,1178.35 623.591,1178.35C622.491,1178.25 621.891,1178.55 622.291,1178.85ZM1510.99,1178.25C1509.79,1179.05 1509.99,1179.25 1511.79,1179.25C1513.09,1179.25 1513.79,1178.85 1513.49,1178.25C1512.79,1177.05 1512.89,1177.05 1510.99,1178.25ZM617.991,1178.85C617.991,1179.65 618.491,1180.05 618.991,1179.75C619.591,1179.45 619.991,1178.75 619.991,1178.15C619.991,1177.65 619.591,1177.25 618.991,1177.25C618.491,1177.25 617.991,1177.95 617.991,1178.85ZM681.991,1176.25C681.991,1176.85 682.691,1177.25 683.491,1177.25C685.391,1177.25 685.391,1176.65 683.491,1175.85C682.691,1175.55 681.991,1175.75 681.991,1176.25ZM1094.29,1162.85C1094.59,1163.15 1095.49,1163.25 1096.19,1162.95C1096.99,1162.65 1096.69,1162.35 1095.59,1162.35C1094.49,1162.25 1093.89,1162.55 1094.29,1162.85ZM361.991,1062.65C361.991,1063.75 363.891,1064.15 364.491,1063.25C364.791,1062.75 364.391,1062.25 363.591,1062.25C362.691,1062.25 361.991,1062.45 361.991,1062.65ZM1190.49,924.252C1190.09,924.852 1191.19,925.252 1192.99,925.252C1194.79,925.252 1195.89,924.852 1195.49,924.252C1195.19,923.652 1193.99,923.252 1192.99,923.252C1191.99,923.252 1190.79,923.652 1190.49,924.252ZM1167.59,922.152C1167.19,922.652 1167.39,923.352 1167.89,923.652C1168.39,924.052 1169.09,923.852 1169.39,923.352C1169.79,922.852 1169.59,922.152 1169.09,921.852C1168.59,921.452 1167.89,921.652 1167.59,922.152ZM1183.49,874.252C1183.19,874.752 1183.39,875.252 1183.89,875.252C1184.49,875.252 1184.99,874.752 1184.99,874.252C1184.99,873.652 1184.79,873.252 1184.59,873.252C1184.29,873.252 1183.79,873.652 1183.49,874.252ZM1157.99,870.252C1157.99,870.752 1158.69,871.252 1159.59,871.252C1160.39,871.252 1160.79,870.752 1160.49,870.252C1160.19,869.652 1159.49,869.252 1158.89,869.252C1158.39,869.252 1157.99,869.652 1157.99,870.252ZM1215.99,824.152C1215.99,824.752 1216.49,825.252 1216.99,825.252C1217.59,825.252 1217.99,825.052 1217.99,824.852C1217.99,824.552 1217.59,824.052 1216.99,823.752C1216.49,823.452 1215.99,823.652 1215.99,824.152ZM1166.99,751.252C1168.99,752.552 1170.99,752.552 1170.99,751.252C1170.99,750.652 1169.79,750.252 1168.29,750.252C1166.09,750.252 1165.79,750.452 1166.99,751.252ZM1175.79,745.952C1174.39,746.352 1174.19,746.752 1174.99,748.352C1176.29,750.752 1178.19,750.752 1179.69,748.352C1181.49,745.552 1180.19,744.752 1175.79,745.952ZM1171.99,604.152C1171.99,604.752 1172.49,605.252 1172.99,605.252C1173.59,605.252 1173.99,605.052 1173.99,604.852C1173.99,604.552 1173.59,604.052 1172.99,603.752C1172.49,603.452 1171.99,603.652 1171.99,604.152ZM1472.29,1140.85C1472.59,1141.15 1473.49,1141.25 1474.19,1140.95C1474.99,1140.65 1474.69,1140.35 1473.59,1140.35C1472.49,1140.25 1471.89,1140.55 1472.29,1140.85ZM1202.99,1120.15C1204.19,1122.45 1204.59,1122.65 1205.49,1121.35C1205.79,1120.75 1205.09,1119.85 1203.99,1119.25C1201.99,1118.15 1201.89,1118.25 1202.99,1120.15ZM691.191,1136.15C690.191,1136.75 690.191,1137.15 691.491,1138.25C692.791,1139.35 692.991,1139.15 692.991,1137.35C692.991,1134.95 692.991,1134.95 691.191,1136.15ZM670.991,1135.25C670.991,1135.75 671.491,1136.25 671.991,1136.25C672.591,1136.25 672.991,1135.75 672.991,1135.25C672.991,1134.65 672.591,1134.25 671.991,1134.25C671.491,1134.25 670.991,1134.65 670.991,1135.25ZM677.391,1131.65C676.591,1133.75 677.391,1136.85 678.491,1136.25C679.091,1135.95 679.391,1135.35 679.191,1134.95C679.091,1134.55 679.391,1133.25 679.991,1132.25C680.891,1130.65 680.691,1130.25 679.491,1130.25C678.591,1130.25 677.691,1130.85 677.391,1131.65ZM629.991,1130.05C626.297,1132.79 629.837,1135.7 633.239,1134.62C636.807,1137.24 626.042,1138.57 632.427,1139.86C636.894,1141.24 638.814,1131.73 640.316,1138.53C645.69,1135.08 652.422,1137.66 658.228,1138.6C663.085,1137 669.103,1137.07 671.721,1132.35C675.423,1133.52 677.278,1129.49 672.62,1130.01C667.492,1130.43 661.918,1129.34 657.711,1132.98C656.184,1134.48 647.062,1137.68 651.491,1134.25C655.896,1131.24 644.922,1129.57 642.489,1130.26C639.097,1129.19 634.937,1136.68 634.591,1130.26C633.076,1130.01 631.478,1129.27 629.991,1130.06L629.991,1130.05ZM644.991,1132.85C641.284,1134.91 640.858,1129.3 644.991,1132.85ZM647.991,1135.25C645.904,1138.79 645.431,1131.76 647.991,1135.25ZM691.191,1128.95C690.291,1130.25 689.791,1130.45 689.391,1129.45C688.591,1127.75 685.991,1127.95 685.991,1129.65C685.991,1130.45 685.091,1131.75 683.991,1132.55C681.591,1134.15 682.191,1136.85 685.091,1137.55C687.291,1138.15 687.691,1136.75 685.491,1135.85C682.891,1134.85 683.791,1132.95 686.591,1133.65C688.491,1134.15 689.791,1133.65 691.991,1131.55C693.591,1130.05 694.691,1128.55 694.391,1128.05C693.591,1126.75 692.591,1127.05 691.191,1128.95ZM713.391,1127.35C713.091,1127.95 713.191,1128.85 713.791,1129.45C714.391,1130.05 714.891,1129.65 715.291,1128.35C715.791,1126.15 714.591,1125.45 713.391,1127.35ZM700.991,1127.15C700.991,1127.65 701.691,1128.35 702.591,1128.65C704.791,1129.55 704.991,1129.45 704.991,1127.75C704.991,1126.95 704.091,1126.25 702.991,1126.25C701.891,1126.25 700.991,1126.65 700.991,1127.15ZM803.591,1121.05C802.791,1122.35 804.591,1126.25 805.991,1126.25C807.791,1126.25 807.791,1124.65 806.091,1122.35C804.891,1120.85 803.991,1120.35 803.591,1121.05ZM822.991,1118.65C822.991,1119.85 828.191,1124.25 829.091,1123.65C829.791,1123.25 829.191,1122.15 827.391,1120.65C824.691,1118.55 822.991,1117.75 822.991,1118.65ZM757.991,1118.25C752.484,1118.18 746.271,1120.11 742.791,1125.15C740.657,1127.29 735.302,1131.53 736.129,1125.83C735.438,1121.51 730.636,1121.63 732.162,1126.38C732.891,1128.41 737.272,1134.05 732.016,1131.35C729.989,1128.04 725.913,1123.7 725.803,1130.35C723.751,1130.75 715.889,1129.36 718.835,1133.05C723.511,1133.2 728.975,1136.99 733.98,1133.96C737.59,1132.85 742.319,1133.51 745.449,1132.35C743.389,1126.11 753.792,1128.91 753.579,1122.38C756.318,1115.52 756.255,1130.69 758.266,1122.7C760.569,1121.35 757.98,1127.68 762.281,1124.94C768.785,1125.66 768.885,1115.69 762.591,1117.25C761.121,1117.41 759.088,1117.07 757.991,1118.25ZM829.991,1118.25C829.991,1119.35 830.191,1120.25 830.491,1120.25C830.691,1120.25 831.391,1119.35 831.991,1118.25C832.891,1116.65 832.791,1116.25 831.491,1116.25C830.691,1116.25 829.991,1117.15 829.991,1118.25ZM704.091,1117.65C703.991,1118.75 704.291,1119.35 704.591,1118.95C704.891,1118.65 704.991,1117.75 704.691,1117.05C704.391,1116.25 704.091,1116.55 704.091,1117.65ZM795.491,1114.15C792.874,1115.35 788.51,1121.05 786.482,1118.66C792.15,1116.56 785.282,1113.65 783.891,1117.25C784.348,1110.86 773.663,1116.58 778.628,1120.85C774.842,1122.24 776.27,1112.7 772.991,1117.75C771.402,1120.06 768.023,1123.28 773.063,1123.52C777.52,1125.73 782.68,1129.2 787.799,1128.95C785.324,1125.79 784.266,1121.11 790.496,1122.11C793.693,1120.09 794.941,1115.79 799.33,1115.93C800.297,1113.18 797.032,1113.37 795.491,1114.15L795.491,1114.15ZM677.991,1113.65C677.991,1114.55 678.491,1115.25 678.991,1115.25C679.591,1115.25 679.991,1114.85 679.991,1114.35C679.991,1113.75 679.591,1113.05 678.991,1112.75C678.491,1112.45 677.991,1112.85 677.991,1113.65ZM825.591,1112.15C825.291,1112.65 826.291,1113.25 827.791,1113.55C830.791,1114.15 832.291,1113.55 831.491,1112.15C830.691,1110.95 826.291,1110.95 825.591,1112.15ZM785.791,1105.45C786.691,1106.35 787.291,1106.35 788.191,1105.45C789.091,1104.55 788.891,1104.25 786.991,1104.25C785.091,1104.25 784.891,1104.55 785.791,1105.45ZM852.991,1115.75C853.691,1116.65 854.491,1117.05 854.691,1116.85C855.391,1116.15 853.991,1114.25 852.791,1114.25C852.191,1114.25 852.191,1114.85 852.991,1115.75ZM901.991,1110.25C901.991,1110.75 902.691,1111.25 903.491,1111.25C904.291,1111.25 904.991,1110.75 904.991,1110.25C904.991,1109.65 904.291,1109.25 903.491,1109.25C902.691,1109.25 901.991,1109.65 901.991,1110.25ZM883.391,1110.35C882.591,1111.75 884.491,1112.05 888.491,1111.35L892.491,1110.65L888.191,1110.15C885.791,1109.85 883.691,1110.05 883.391,1110.35ZM875.491,1110.15C875.191,1110.65 875.391,1111.45 875.991,1111.75C877.491,1112.65 880.291,1111.45 879.491,1110.25C878.691,1108.95 876.291,1108.95 875.491,1110.15ZM947.791,1106.95C948.391,1107.15 948.991,1107.85 948.991,1108.35C948.991,1109.65 946.191,1109.45 945.791,1108.05C945.491,1107.35 944.791,1107.25 944.091,1107.65C942.391,1108.75 946.091,1112.25 948.791,1112.25C951.491,1112.25 952.391,1108.55 949.991,1107.25C948.991,1106.65 947.791,1106.25 947.291,1106.35C946.891,1106.35 947.091,1106.65 947.791,1106.95ZM931.191,1107.55C930.291,1108.65 930.191,1109.25 930.991,1109.75C932.491,1110.65 933.291,1109.85 932.791,1107.65C932.491,1106.15 932.391,1106.05 931.191,1107.55ZM877.291,1102.85C877.591,1103.15 878.491,1103.25 879.191,1102.95C879.991,1102.65 879.691,1102.35 878.591,1102.35C877.491,1102.25 876.891,1102.55 877.291,1102.85ZM861.591,1101.75C859.691,1103.25 859.691,1103.25 861.691,1103.25C862.791,1103.25 863.991,1102.55 864.391,1101.75C865.091,1099.85 864.091,1099.85 861.591,1101.75ZM1228.29,564.452C1207.11,574.337 1226.93,591.33 1196.29,587.452C1174.38,590.709 1164.12,604.547 1192.99,612.952C1211.71,642.134 1173.07,631.265 1161.49,643.552C1138.84,655.744 1142.57,702.271 1171.49,684.152C1200.34,692.965 1201.56,700.487 1184.99,698.852C1183.12,717.744 1136.08,719.238 1168.29,739.052C1173.63,737.406 1129.97,744.818 1156.89,763.352C1165.4,774.576 1148.35,825.826 1140.79,819.052C1132.56,832.972 1084.53,869.456 1133.99,871.852C1146.38,859.605 1157.83,872.524 1174.09,864.852C1190.91,858.215 1195.37,864.643 1214.09,862.152C1240.65,873.304 1218.56,882.601 1195.4,876.69C1200.13,875.531 1177.33,875.922 1163.1,874.29C1122.87,871.598 1119.16,902.2 1142.39,901.052C1154.49,905.639 1184.16,909.781 1133.39,915.352C1086.76,913.013 1105.91,949.862 1095.5,964.527C1085.93,984.468 1127.29,1002.82 1106.49,1009.75C1092.35,1017.58 1038.06,1045.57 1078.39,1049.45C1111.63,1032.06 1141.72,1064.18 1182.19,1059.45C1127.65,1063.3 1055.8,1064.29 995.216,1056.9C939.097,1069.09 884.318,1098.49 825.691,1096.85C772.964,1086.76 718.876,1105.14 665.791,1107.65C623.587,1117.33 594.06,1126.22 551.591,1135.15C491.196,1154.61 427.575,1158.45 364.791,1160.15C331.797,1171.19 376.774,1175.69 383.891,1164.35C445.003,1164.4 387.879,1181.1 350.991,1179.15C316.659,1183.91 306.028,1185.94 341.191,1168.75C325.907,1164.79 287.424,1186.11 265.791,1189.65C242.951,1203.95 162.898,1201.28 183.991,1232.05C209.539,1232.43 222.786,1219.91 243.691,1218.55C263.002,1209.63 282.239,1205.68 301.428,1214.12C316.247,1200.83 313.534,1204.14 333.203,1201.58C346.728,1210.24 356.518,1192.53 371.291,1193.05C389.114,1198.23 392.077,1184.46 403.816,1193.23C433.277,1185.41 457.453,1193.58 483.091,1186.91C508.942,1183.54 511.361,1188.44 534.491,1184.25C549.427,1178.5 554.774,1191.37 555.291,1179.95C570.475,1173.13 587.742,1187.87 611.491,1179.65C628.293,1171.94 636.991,1178.42 658.678,1178.35C660.122,1173.27 708.376,1169.31 698.491,1172.25C699.856,1183.25 741.254,1170.14 739.791,1173.65C753.856,1173.5 783.812,1177.95 806.391,1177.45C825.093,1182.82 834.248,1176.56 847.191,1182.25C869.206,1177.24 868.069,1189.03 888.091,1183.35C900.522,1190.51 959.298,1193.5 919.391,1182.15C892.971,1175.78 854.88,1179.98 835.016,1171.8C806.996,1171.98 750.922,1162.84 712.891,1165.85C665.685,1172.78 705.75,1152.34 729.991,1161.75C750.225,1162.39 766.051,1150.72 782.391,1162.55C786.41,1156.19 821.304,1153.49 840.316,1157.1C858.127,1154.82 876.164,1156.31 891.691,1156.25C927.032,1156.04 966.614,1157.18 997.203,1155.49C1019.66,1161.18 1042.57,1155.22 1045.99,1156.35C1070.8,1162.68 1080.76,1157.37 1104.03,1161.23C1119.2,1156.55 1146.91,1162.96 1174.63,1161.52C1194.1,1159.47 1219.42,1155.17 1238.49,1160.25C1250.27,1164.32 1266.26,1158.87 1279.59,1159.15C1294.84,1168.46 1321.54,1152.15 1339.79,1164.35C1361.48,1166.44 1371.69,1163.7 1385.79,1168.15C1395.85,1173.57 1428.6,1172.4 1419.99,1170.25C1438.47,1171.83 1455.88,1175.1 1488.89,1177.75C1511.15,1174.95 1534.66,1184.09 1558.72,1178.46C1575.72,1185.87 1602.84,1186.05 1618.69,1183.85C1632.63,1191.71 1693,1187.97 1677.49,1192.65C1696.01,1190.93 1712.27,1201.63 1726.49,1196.65C1751.69,1202.22 1818.78,1210.52 1804.99,1207.35C1776.33,1229.01 1745.14,1230.45 1707.99,1235.35C1637.72,1236.27 1567.82,1243.93 1497.99,1232.45C1437.37,1224.32 1376.79,1223.28 1315.39,1223.75C1281.71,1225.88 1246.57,1221.98 1213.29,1217.95C1184.23,1215.35 1168.52,1216.31 1139.59,1210.95C1089.38,1200.12 1040.84,1177.72 988.166,1185.69C962.949,1180.34 918.441,1192.76 956.491,1190.05C968.405,1202.32 984.154,1192.39 998.191,1196.45C1013.81,1200.46 1039.85,1186.21 1045.79,1200.45C1070.33,1198.98 1087.64,1210.39 1102.69,1208.54C1104.49,1207.72 1138.22,1227.18 1133.49,1220.35C1150.54,1221.37 1184.38,1226.68 1212.49,1228.25C1236.53,1234.39 1249.46,1230.77 1278.39,1230.35C1292.8,1230.65 1313.08,1235.64 1335.09,1236.85C1351.64,1238.97 1365.15,1232.57 1384.98,1236.15C1403.21,1226.79 1417.9,1240.3 1435.99,1239.65C1451.2,1239.16 1469.17,1238.36 1491.29,1243.35C1520.57,1241.12 1560.07,1254.88 1588.29,1245.65C1605.68,1252.9 1640.78,1240.96 1663.78,1249.24C1678.91,1241.91 1710.23,1252.62 1724.09,1240.05C1738.41,1247.18 1758.79,1240.96 1755.44,1239.14C1787.04,1235.3 1812.14,1210.36 1840.89,1209.85C1864.64,1209.58 1895.71,1207.54 1922.59,1212.85C1965.18,1212.66 2007.37,1242.75 2051.59,1247.35C2108.07,1267.54 2087.07,1219.58 2039.33,1225.85C1979.11,1217.23 1926.51,1181.77 1866.19,1173.95C1771.24,1153.66 1677.04,1114.28 1577.49,1129.36C1519.97,1139.5 1468.06,1106.5 1410.77,1112.28C1351.81,1102.55 1289.23,1116.14 1236.89,1083.25C1182.08,1069.43 1281.36,1072.91 1228.69,1054.85C1210.62,1049.12 1104.71,1051.81 1142.69,1033.15C1163.2,1017.93 1244.3,1065.34 1215.75,1017.54C1193.61,1015.65 1101.44,1004.83 1128.43,986.277C1143.27,987.499 1172.61,997.788 1194.99,999.552C1266.91,1021.82 1199.33,949.15 1157.07,969.877C1108.39,979.894 1098.33,959.047 1147.99,957.752C1168.03,956.937 1179.34,961.195 1200.78,966.99C1203.33,968.253 1277.63,989.447 1223.19,950.152C1201.84,922.599 1091.49,968.011 1115.35,927.415C1129.28,920.59 1170.6,910.098 1160.89,917.052C1170.08,918.99 1196.87,921.124 1207.84,925.34C1230.73,934.59 1244.12,912.492 1202.99,906.652C1186.88,913.966 1123.88,886.976 1152.15,889.152C1168.12,883.574 1191.4,881.208 1209.59,883.552C1239.29,903.173 1256.8,887.286 1226.5,858.421C1207.19,842.041 1088.71,874.715 1138.49,842.252C1165.81,829.493 1165.8,844.37 1182.99,837.252C1197.59,843.405 1220.57,842.375 1236.99,859.952C1284.54,875.777 1217.43,817.462 1195.19,822.952C1216.13,811.658 1242.56,841.609 1252.49,828.652C1228.66,804.748 1208.29,791.127 1255.79,809.852C1286.86,782.321 1181.81,760.795 1164.88,748.352C1193.81,742.018 1198.72,749.236 1231.99,753.252C1282.18,784.484 1226.66,723.573 1265.19,738.952C1290.22,728.925 1267.12,696.631 1251.99,696.252C1250.47,682.131 1201.15,690.996 1222.99,681.252C1217.05,668.679 1254.38,690.858 1248.99,682.752C1270.52,695.419 1304.72,694.058 1267.19,670.052C1281.01,639.138 1223.79,630.991 1283.02,632.977C1293.26,598.882 1164.25,610.699 1234.04,595.465C1254.6,590.151 1301.26,616.36 1267.99,581.752C1263.06,569.589 1242.08,567.88 1228.29,564.452ZM1241.39,567.852C1228.43,590.239 1221.62,577.843 1235.59,568.652C1237.8,569.346 1240.02,563.716 1241.39,567.852ZM1227.99,573.152C1226.17,578.257 1224.81,569.646 1227.99,573.152ZM1203.79,590.152C1196.5,597.161 1207.94,582.077 1203.79,590.152ZM1219.99,593.252C1217.44,596.84 1217.44,589.665 1219.99,593.252ZM1205.49,594.252C1203,597.97 1201.59,590.668 1205.49,594.252ZM1175.99,596.852C1173.08,598.641 1173.68,593.327 1175.99,596.852ZM1225.69,621.952C1214.04,635.08 1217.23,615.888 1225.69,621.952ZM1236.99,624.252C1219.52,629.569 1235.52,615.636 1236.99,624.252ZM1212.99,623.752C1197.55,629.76 1216.16,619.181 1212.99,623.752ZM1241.59,623.752C1244.59,629.371 1233.38,617.786 1241.59,623.752ZM1225.19,628.852C1215.72,637.377 1228.21,619.142 1225.19,628.852ZM1247.89,630.052C1247.57,641.062 1234.22,623.367 1247.89,630.052ZM1235.69,631.852C1230.56,632.298 1235.39,626.688 1235.69,631.852ZM1231.19,632.952C1226.84,634.312 1230.77,631.057 1231.19,632.952ZM1198.49,638.252C1196,641.97 1194.59,634.668 1198.49,638.252ZM1189.49,640.252C1181.35,651.789 1184.18,635.057 1189.49,640.252ZM1212.39,640.752C1208.15,646.102 1212.04,635.531 1212.39,640.752ZM1200.79,643.452C1204.02,652.23 1190.41,637.193 1200.79,643.452ZM1217.29,646.952C1257.41,661.765 1246.05,656.47 1211.49,657.952C1193.97,659.154 1143.82,685.004 1164.49,655.652C1173.04,652.074 1195.83,646.149 1217.29,646.952ZM1227.19,662.452C1223.33,661.886 1229.92,657.224 1227.19,662.452ZM1256.99,661.352C1254.08,663.141 1254.68,657.827 1256.99,661.352ZM1218.99,666.252C1213.75,669.937 1213.75,662.567 1218.99,666.252ZM1256.99,667.852C1249.66,678.524 1252.68,665.815 1256.99,667.852ZM1228.99,669.252C1225.09,672.905 1225.09,665.599 1228.99,669.252ZM1209.19,674.952C1204.84,676.312 1208.77,673.057 1209.19,674.952ZM1164.29,676.952C1158.78,678.585 1163.29,675.193 1164.29,676.952ZM1198.19,676.952C1193.84,678.312 1197.77,675.057 1198.19,676.952ZM1210.59,687.252C1214.5,697.307 1196.36,680.536 1210.59,687.252ZM1234.79,688.852C1241.92,703.01 1222.97,681.529 1234.79,688.852ZM1227.99,690.252C1220.82,693.965 1223.22,686.454 1227.99,690.252ZM1219.59,693.752C1209.54,696.209 1193.22,693.134 1219.59,693.752ZM1229.99,696.352C1226.81,699.858 1228.17,691.247 1229.99,696.352ZM1240.49,697.252C1233.32,700.965 1235.72,693.454 1240.49,697.252ZM1220.79,699.552C1214.54,706.61 1217.14,692.217 1220.79,699.552ZM1214.79,699.252C1213.52,711.635 1189.07,701.707 1214.79,699.252ZM1236.19,701.452C1230.96,704.183 1235.62,697.589 1236.19,701.452ZM1247.49,706.252C1243.88,710.023 1241.91,702.588 1247.49,706.252ZM1218.59,714.952C1216.4,714.009 1220.7,711.038 1218.59,714.952ZM1245.99,715.252C1242.09,718.836 1243.5,711.534 1245.99,715.252ZM1169.29,717.852C1164.26,720.473 1169.67,711.582 1169.29,717.852ZM1184.49,719.252C1178.69,720.773 1181.25,715.953 1184.49,719.252ZM1208.49,722.352C1218.87,744.075 1179.64,730.367 1203.49,725.452C1205.37,720.799 1201.49,716.898 1208.49,722.352ZM1255.49,721.752C1251.07,729.996 1251.07,713.508 1255.49,721.752ZM1195.29,723.552C1179.62,723.504 1206.49,718.816 1195.29,723.552ZM1215.99,721.752C1209.33,724.842 1217.29,716.886 1215.99,721.752ZM1262.99,723.752C1260.5,728.637 1257.57,717.875 1262.99,723.752ZM1223.39,723.952C1246.15,725.525 1200.3,736.169 1223.39,723.952ZM1191.79,727.352C1187.6,735.719 1185.66,720.468 1191.79,727.352ZM1189.29,733.852C1179.95,739.33 1191.21,727.198 1189.29,733.852ZM1237.79,734.452C1225.46,746.94 1229.73,731.172 1237.79,734.452ZM1225.99,736.252C1223.44,739.84 1223.44,732.665 1225.99,736.252ZM1193.29,738.252C1191.03,745.213 1192.53,731.294 1193.29,738.252ZM1243.09,739.552C1238,741.762 1244.28,734.24 1243.09,739.552ZM1200.99,742.852C1197.74,746.346 1200.46,737.759 1200.99,742.852ZM1161.99,746.752C1158.62,751.726 1158.28,741.18 1161.99,746.752ZM1180.99,764.052C1174.51,770.867 1173.69,761.387 1180.99,764.052ZM1188.29,765.752C1189.64,774.7 1174.36,761.89 1188.29,765.752ZM1217.49,770.252C1236.98,774.483 1185.37,773.256 1217.49,770.252ZM1195.49,775.252C1204.25,787.101 1182.72,768.501 1195.49,775.252ZM1230.99,775.352C1228.08,777.141 1228.68,771.827 1230.99,775.352ZM1180.59,779.252C1184.69,788.23 1170.03,774.4 1180.59,779.252ZM1186.99,779.252C1188.98,786.62 1179.09,774.406 1186.99,779.252ZM1173.99,781.352C1171.08,783.141 1171.68,777.827 1173.99,781.352ZM1165.19,788.952C1160.84,790.312 1164.77,787.057 1165.19,788.952ZM1210.09,797.252C1215.66,803.17 1197.06,793.234 1210.09,797.252ZM1197.49,798.152C1189.91,805.683 1193.81,794.185 1197.49,798.152ZM1184.19,798.952C1179.84,800.312 1183.77,797.057 1184.19,798.952ZM1220.39,799.752C1206.44,808.661 1220.24,794.388 1220.39,799.752ZM1232.99,800.252C1230.44,803.838 1231.88,796.568 1232.99,800.252ZM1196.19,810.852C1208.14,824.264 1180.68,808.001 1196.19,810.852ZM1209.49,807.252C1224.06,817.768 1183.48,804.289 1209.49,807.252ZM1179.69,808.952C1195.03,823.922 1156.63,813.148 1179.69,808.952ZM1231.79,814.052C1228.54,818.513 1227.95,808.886 1231.79,814.052ZM1187.39,815.752C1183.78,821.196 1186.7,810.213 1187.39,815.752ZM1148.99,817.252C1146.44,820.84 1146.44,813.665 1148.99,817.252ZM1155.99,818.252C1159.11,821.723 1144.21,815.749 1155.99,818.252ZM1206.99,818.152C1205.17,823.257 1203.81,814.646 1206.99,818.152ZM1179.79,820.052C1175.32,825.588 1166.25,816.732 1179.79,820.052ZM1188.49,834.152C1187.06,839.832 1184.32,830.895 1188.49,834.152ZM1178.89,836.152C1180.38,841.041 1167.46,835.216 1178.89,836.152ZM1120.99,848.852C1116.98,850.666 1117.1,845.492 1120.99,848.852ZM1205.99,877.152C1200.78,884.273 1204.39,873.138 1205.99,877.152ZM1191.29,909.752C1208.2,919.099 1153.86,904.342 1191.29,909.752ZM1178.99,910.252C1173.41,913.916 1175.38,906.481 1178.99,910.252ZM1199.99,910.252C1198.26,913.604 1190.08,907.198 1199.99,910.252ZM1192.19,916.952C1187.84,918.312 1191.77,915.057 1192.19,916.952ZM1201.39,919.752C1200.7,925.291 1197.78,914.308 1201.39,919.752ZM1123.99,922.352C1120.81,925.858 1122.17,917.247 1123.99,922.352ZM1110.29,933.052C1097.76,932.969 1114.81,923.761 1110.29,933.052ZM1197.59,951.152C1234.06,954.518 1192.56,956.113 1197.59,951.152ZM1156.99,955.252C1154.5,958.97 1153.09,951.668 1156.99,955.252ZM1137.19,957.452C1131.96,960.183 1136.62,953.589 1137.19,957.452ZM1222.99,958.252C1220.44,961.838 1221.88,954.568 1222.99,958.252ZM1152.59,974.952C1148.33,975.26 1154.29,970.245 1152.59,974.952ZM1160.49,980.152C1186.5,973.491 1242.73,997.321 1179.99,985.852C1179.2,985.837 1128.7,976.339 1160.49,980.152ZM1113.89,985.652C1116.54,993.345 1098.12,977.765 1113.89,985.652ZM1190.99,997.252C1184.16,997.898 1188.05,994.59 1190.99,997.252ZM1130.99,1008.25C1129.01,1011.67 1119.99,1005.1 1130.99,1008.25ZM1160.99,1024.65C1160.01,1027.16 1153.11,1023.58 1160.99,1024.65ZM1114.99,1026.25C1111.09,1029.9 1111.09,1022.6 1114.99,1026.25ZM1125.49,1038.25C1123,1041.97 1121.59,1034.67 1125.49,1038.25ZM1195.49,1060.25C1191.59,1063.9 1191.59,1056.6 1195.49,1060.25ZM1015.09,1067.35C1006.04,1071.91 1020.97,1060.68 1015.09,1067.35ZM1000.99,1068.75C1028.66,1067.78 1052.58,1076.5 1060.09,1076.95C1089.93,1088.6 1115.83,1106.05 1061.47,1104.16C1027.73,1102.67 987.459,1108.86 962.203,1106.71C944.088,1121.17 944.605,1105.79 925.791,1112.95C919.815,1102.06 873.352,1113.88 887.791,1116.35C851.072,1131.93 875.924,1106.22 856.791,1111.45C850.661,1138.68 839.523,1095.34 862.491,1098.25C891.001,1100.32 907.57,1090.63 936.091,1085.05C956.615,1077.35 973.156,1078.07 995.791,1067.45L1000,1066.49L1000.99,1068.75ZM1149.29,1076.35C1143.54,1077.09 1150.49,1070 1149.29,1076.35ZM1171.49,1075.25C1170.2,1079.17 1167.94,1071.47 1171.49,1075.25ZM1147.99,1078.25C1200.38,1083.5 1101.55,1079.36 1147.99,1078.25ZM1186.99,1085.25C1209.05,1089.88 1248.29,1093.19 1265.79,1109.05C1232.45,1115.47 1146.36,1105.52 1144.69,1095.55C1160.77,1102.21 1172.36,1079.62 1186.99,1085.25ZM1104.99,1094.15C1098.02,1101.09 1101.75,1090.88 1104.99,1094.15ZM869.491,1097.25C866.941,1100.84 868.384,1093.57 869.491,1097.25ZM801.891,1101.45C811.655,1114.04 833.158,1122.91 836.891,1113.05C833.011,1135.46 824.68,1121.02 811.991,1121.75C805.859,1130.52 786.289,1132.04 768.491,1136.15C729.536,1145.4 685.981,1144.35 648.491,1142.35C612.343,1140.22 627.571,1127.62 600.591,1141.25C609.165,1138.51 602.485,1130.22 623.091,1125.05C642.699,1123.82 661.723,1116.36 678.641,1108.38C693.821,1116.46 699.382,1111.46 714.091,1106.25C728.526,1108.61 742.985,1106.95 761.691,1101.35C775.895,1104.45 792.113,1100.34 801.891,1101.45ZM745.391,1103.75C741.413,1107.26 743.479,1098.77 745.391,1103.75ZM730.491,1105.25C726.443,1107.37 728.149,1101.7 730.491,1105.25ZM1130.19,1105.25C1146.76,1114.5 1148.72,1112.8 1172.39,1114.15C1192.77,1119.25 1216.17,1113.78 1230.99,1121.15C1257.32,1119.36 1286.04,1117.13 1319.39,1122.35C1346.48,1125.88 1380.22,1115.67 1404.19,1127.65C1425.09,1127.87 1442.86,1136.8 1461.29,1137.15C1497.98,1140.49 1528.36,1151.91 1566.79,1155.95C1596.22,1157.13 1635.89,1168.56 1653.59,1176.15C1458.78,1154.09 1262.41,1140.96 1066.09,1142.85C1011.01,1139.7 953.273,1140.53 895.291,1138.95C855.217,1142.87 807.157,1138.1 868.891,1131.65C873.608,1133.01 888.878,1128.37 903.616,1130.75C915.512,1124.17 950.44,1121.15 942.991,1124.05C967.079,1128.12 1002,1123.75 1016.93,1119.4C1045.22,1121.85 1050.04,1122.75 1065.99,1115.35C1063.03,1122.26 1101.81,1116.21 1090.49,1117.25C1102.25,1110.23 1123.94,1108.77 1130.19,1105.25ZM819.291,1106.65C816.733,1111.27 816.04,1102.28 819.291,1106.65ZM1158.29,1106.95C1152.78,1108.59 1157.29,1105.19 1158.29,1106.95ZM996.991,1108.25C993.091,1111.84 994.503,1104.53 996.991,1108.25ZM1015.99,1110.25C1014.02,1114.27 1004.96,1106.55 1015.99,1110.25ZM909.491,1116.25C905.591,1119.84 907.003,1112.53 909.491,1116.25ZM648.991,1117.35C646.078,1119.14 646.68,1113.83 648.991,1117.35ZM844.191,1119.85C845.668,1131.61 836.021,1115 844.191,1119.85ZM1327.19,1120.95C1322.84,1122.31 1326.77,1119.06 1327.19,1120.95ZM819.991,1124.15C816.462,1129.62 812.922,1120.05 819.991,1124.15ZM927.991,1124.85C926.408,1127.26 923.119,1121.29 927.991,1124.85ZM1457.19,1124.95C1452.84,1126.31 1456.77,1123.06 1457.19,1124.95ZM1429.39,1127.35C1424.94,1129.05 1429.24,1122.59 1429.39,1127.35ZM1442.99,1131.25C1440.5,1134.97 1439.09,1127.67 1442.99,1131.25ZM1540.49,1132.25C1538,1135.97 1536.59,1128.67 1540.49,1132.25ZM1652.39,1136.75C1669.36,1149.24 1707.57,1133.62 1718.49,1150.25C1742.3,1155.04 1749.36,1154.87 1763.59,1161.85C1792.34,1162.75 1806.74,1170.47 1831.14,1178.77C1852.27,1178.52 1875.74,1186.15 1895.29,1191.25C1853.11,1196.38 1789.31,1181.26 1740.49,1175.65C1683.18,1166.95 1626.36,1156.8 1569.48,1145.94C1586.39,1136.92 1599.5,1141.69 1614.69,1141.95C1602.76,1134.05 1647.78,1142.4 1652.39,1136.75ZM1677.99,1138.45C1671.69,1144.41 1668.94,1127.24 1677.99,1138.45ZM570.491,1137.25C566.591,1140.84 568.003,1133.53 570.491,1137.25ZM585.791,1137.45C582.383,1141.25 582.496,1133.21 585.791,1137.45ZM805.191,1136.95C800.835,1138.31 804.768,1135.06 805.191,1136.95ZM593.991,1140.25C601.997,1150.31 577.982,1130.85 593.991,1140.25ZM768.991,1138.85C764.975,1140.67 765.095,1135.49 768.991,1138.85ZM826.491,1139.25C823.941,1142.84 825.384,1135.57 826.491,1139.25ZM576.291,1142.45C610.919,1149.65 551.679,1141.17 576.291,1142.45ZM785.991,1142.25C780.326,1149.32 785.877,1135.22 785.991,1142.25ZM1734.19,1142.95C1729.84,1144.31 1733.77,1141.06 1734.19,1142.95ZM556.891,1144.15C547.283,1154.16 545.089,1142.98 556.891,1144.15ZM537.991,1148.15C532.781,1155.27 536.395,1144.14 537.991,1148.15ZM532.491,1150.25C527.502,1153.88 529.821,1146.41 532.491,1150.25ZM585.391,1151.35C580.939,1153.05 585.244,1146.59 585.391,1151.35ZM591.491,1150.25C587.588,1153.9 587.588,1146.6 591.491,1150.25ZM1044.99,1150.85C1041.74,1154.35 1044.46,1145.76 1044.99,1150.85ZM519.991,1152.05C515.762,1158.4 510.984,1150.71 519.991,1152.05ZM628.991,1153.75C626.547,1159.01 628.099,1148.46 628.991,1153.75ZM592.191,1155.15C582.275,1164.48 592.118,1147.49 592.191,1155.15ZM622.691,1154.45C631.98,1161.48 603.093,1154.41 622.691,1154.45ZM655.191,1154.95C650.835,1156.31 654.768,1153.06 655.191,1154.95ZM1124.59,1156.95C1122.4,1156.01 1126.7,1153.04 1124.59,1156.95ZM1130.99,1156.75C1124.72,1161.46 1129.5,1156.5 1130.49,1154.25L1130.99,1156.75ZM596.991,1156.25C594.441,1159.84 595.884,1152.57 596.991,1156.25ZM606.991,1156.25C603.088,1159.9 603.088,1152.6 606.991,1156.25ZM687.891,1156.85C686.894,1163.84 671.779,1149.17 687.891,1156.85ZM1784.49,1156.25C1780.59,1159.9 1780.59,1152.6 1784.49,1156.25ZM654.191,1158.95C649.835,1160.31 653.768,1157.06 654.191,1158.95ZM698.191,1158.95C693.835,1160.31 697.768,1157.06 698.191,1158.95ZM1142.09,1159.35C1146.12,1167.48 1130.54,1155.21 1142.09,1159.35ZM1374.59,1161.95C1372.4,1161.01 1376.7,1158.04 1374.59,1161.95ZM700.991,1161.35C698.078,1163.14 698.68,1157.83 700.991,1161.35ZM600.591,1164.85C617.357,1171.27 585.276,1160.25 600.591,1164.85ZM678.991,1164.95C668.99,1173.01 653.865,1158.21 678.991,1164.95ZM396.491,1165.25C392.443,1167.37 394.149,1161.7 396.491,1165.25ZM452.191,1164.95C447.835,1166.31 451.768,1163.06 452.191,1164.95ZM594.591,1165.65C598.266,1174.19 586.281,1160.13 594.591,1165.65ZM537.491,1166.25C534.941,1169.84 536.384,1162.57 537.491,1166.25ZM549.491,1166.15C548.826,1171.9 542.129,1163.43 549.491,1166.15ZM611.991,1168.25C606.408,1171.92 608.38,1164.48 611.991,1168.25ZM1404.49,1168.25C1402,1171.97 1400.59,1164.67 1404.49,1168.25ZM1429.19,1169.45C1423.96,1172.18 1428.62,1165.59 1429.19,1169.45ZM554.091,1170.25C555.733,1178.67 544.097,1166.82 554.091,1170.25ZM565.791,1171.45C559.145,1180.95 556.954,1163.57 565.791,1171.45ZM763.391,1171.35C758.939,1173.05 763.244,1166.59 763.391,1171.35ZM731.191,1172.95C726.835,1174.31 730.768,1171.06 731.191,1172.95ZM323.991,1178.45C315.364,1178.87 320.586,1170.73 323.991,1178.45ZM1833.99,1175.85C1831.08,1177.64 1831.68,1172.33 1833.99,1175.85ZM1672.39,1175.85C1677.73,1180.04 1661.89,1174.3 1672.39,1175.85ZM793.991,1177.75C780.132,1181.8 801.634,1172.06 793.991,1177.75ZM1585.29,1178.65C1582.73,1183.27 1582.04,1174.28 1585.29,1178.65ZM1695.29,1178.05C1697.15,1183.17 1681.08,1176.96 1695.29,1178.05ZM1549.49,1179.25C1546.94,1182.84 1548.38,1175.57 1549.49,1179.25ZM1687.29,1178.95C1681.78,1180.59 1686.29,1177.19 1687.29,1178.95ZM1576.29,1181.25C1569.72,1188.64 1574.46,1173.34 1576.29,1181.25ZM306.591,1181.35C326.127,1187.55 283.877,1187.94 306.591,1181.35ZM547.291,1183.35C541.638,1184.28 548.477,1177.01 547.291,1183.35ZM1706.89,1181.65C1720.59,1183.65 1697.13,1184.29 1706.89,1181.65ZM291.991,1184.25C289.436,1187.84 289.436,1180.66 291.991,1184.25ZM297.991,1186.05C292.337,1199.69 291.392,1181.77 297.991,1186.05ZM419.391,1186.15C417.731,1191.19 413.754,1183.47 419.391,1186.15ZM1706.19,1186.95C1701.84,1188.31 1705.77,1185.06 1706.19,1186.95ZM1017.99,1192.85C1015.08,1194.64 1015.68,1189.33 1017.99,1192.85ZM264.991,1195.95C247.369,1206.2 243.22,1191.82 264.991,1195.95ZM1911.29,1194.95C1905.78,1196.59 1910.29,1193.19 1911.29,1194.95ZM1934.99,1196.25C1932.44,1199.84 1933.88,1192.57 1934.99,1196.25ZM1068.99,1197.75C1066.51,1203.02 1066.51,1192.48 1068.99,1197.75ZM1054.99,1199.35C1052.08,1201.14 1052.68,1195.83 1054.99,1199.35ZM1772.89,1199.55C1776.24,1205.58 1764.76,1195.77 1772.89,1199.55ZM245.791,1200.45C240.532,1205.89 241.236,1195.89 245.791,1200.45ZM279.991,1205.25C277.436,1208.84 277.436,1201.66 279.991,1205.25ZM1862.19,1206.95C1857.84,1208.31 1861.77,1205.06 1862.19,1206.95ZM302.991,1209.35C300.078,1211.14 300.68,1205.83 302.991,1209.35ZM204.991,1212.15C202.304,1216.65 200.245,1210.33 204.991,1212.15ZM1154.99,1215.35C1152.08,1217.14 1152.68,1211.83 1154.99,1215.35ZM1177.69,1216.55C1173.89,1221.5 1174.14,1211.34 1177.69,1216.55ZM1164.99,1217.35C1162.08,1219.14 1162.68,1213.83 1164.99,1217.35ZM1227.49,1220.25C1223.88,1224.02 1221.91,1216.59 1227.49,1220.25ZM1265.29,1224.85C1264.15,1234.29 1258.86,1221.49 1265.29,1224.85ZM1273.49,1227.25C1270.94,1230.84 1272.38,1223.57 1273.49,1227.25ZM1987.99,1227.25C1985.44,1230.84 1985.44,1223.66 1987.99,1227.25ZM1715.89,1239.65C1714.39,1246.14 1704.38,1236.17 1715.89,1239.65ZM1674.59,1244.15C1669.26,1248.5 1674.24,1234.83 1674.59,1244.15ZM981.691,551.852C980.791,552.852 983.191,557.252 984.691,557.252C985.391,557.252 985.991,556.752 985.991,556.252C985.991,555.652 985.591,555.252 984.991,555.252C984.491,555.252 983.991,554.352 983.991,553.252C983.991,551.252 982.891,550.652 981.691,551.852ZM1233.29,548.852C1233.59,549.152 1234.49,549.252 1235.19,548.952C1235.99,548.652 1235.69,548.352 1234.59,548.352C1233.49,548.252 1232.89,548.552 1233.29,548.852ZM984.391,543.052C984.791,544.252 984.291,545.052 982.691,545.752C979.791,547.052 979.091,550.252 981.791,550.252C982.891,550.252 984.291,550.952 984.991,551.752C986.691,553.852 989.191,551.452 987.791,548.952C986.791,546.952 987.491,545.152 989.291,545.352C992.091,545.652 994.091,545.152 993.491,544.252C993.091,543.652 992.291,543.252 991.691,543.352C990.991,543.452 989.191,543.052 987.691,542.452C983.991,540.852 983.791,540.952 984.391,543.052ZM701.491,528.252C701.191,528.752 701.391,529.252 701.891,529.252C702.491,529.252 702.991,528.752 702.991,528.252C702.991,527.652 702.791,527.252 702.591,527.252C702.291,527.252 701.791,527.652 701.491,528.252ZM1010.69,524.952C1009.69,525.852 1009.79,529.252 1010.79,529.252C1011.99,529.252 1013.99,526.952 1013.99,525.552C1013.99,524.152 1011.79,523.752 1010.69,524.952ZM1002.69,523.952C1002.39,524.352 1001.89,526.252 1001.49,528.052C1000.99,530.452 1000.19,531.352 998.191,531.852C994.091,532.752 990.991,534.452 991.591,535.452C991.991,536.052 992.691,535.952 993.291,535.352C994.791,533.852 995.991,533.952 995.991,535.652C995.991,536.452 994.891,538.052 993.491,539.052C991.891,540.352 991.291,541.352 991.991,541.752C992.591,542.152 993.891,541.752 994.891,540.852C995.891,539.952 997.191,539.252 997.791,539.252C998.391,539.252 999.191,538.252 999.491,537.152C999.891,535.952 1001.79,533.452 1003.69,531.552C1005.89,529.252 1006.99,527.352 1006.79,525.952C1006.49,523.752 1003.59,522.352 1002.69,523.952ZM923.991,522.152C923.991,522.752 924.491,523.252 924.991,523.252C925.591,523.252 925.991,523.052 925.991,522.852C925.991,522.552 925.591,522.052 924.991,521.752C924.491,521.452 923.991,521.652 923.991,522.152ZM1014.09,516.152C1014.49,517.352 1015.99,517.652 1015.99,516.452C1015.99,516.052 1015.49,515.552 1014.89,515.352C1014.29,515.152 1013.89,515.552 1014.09,516.152ZM1135.39,512.652C1134.39,514.752 1134.49,515.152 1136.09,515.552C1138.59,516.252 1141.39,513.052 1139.79,511.452C1137.99,509.652 1136.59,510.052 1135.39,512.652ZM1136.99,505.752C1137.69,506.552 1138.89,507.252 1139.59,507.252C1140.39,507.252 1140.69,506.652 1140.39,505.752C1139.99,504.952 1138.89,504.252 1137.79,504.252C1136.09,504.252 1135.99,504.552 1136.99,505.752ZM853.491,504.252C853.191,504.752 853.791,505.252 854.891,505.252C856.091,505.252 856.991,504.752 856.991,504.252C856.991,503.652 856.391,503.252 855.591,503.252C854.791,503.252 853.791,503.652 853.491,504.252ZM950.991,496.652C950.991,497.752 952.891,498.152 953.491,497.252C953.791,496.752 953.391,496.252 952.591,496.252C951.691,496.252 950.991,496.452 950.991,496.652ZM920.991,493.252C920.991,493.752 921.491,494.252 921.991,494.252C922.591,494.252 922.991,493.752 922.991,493.252C922.991,492.652 922.591,492.252 921.991,492.252C921.491,492.252 920.991,492.652 920.991,493.252ZM943.591,490.752C942.791,491.552 941.691,492.252 941.091,492.252C940.491,492.252 939.991,492.852 939.991,493.652C939.991,495.252 937.891,496.252 934.191,496.252C932.691,496.252 930.991,496.652 930.491,497.052C928.791,498.252 925.791,503.352 926.391,503.952C926.691,504.352 926.491,505.152 925.991,505.752C925.191,506.652 925.791,507.152 928.191,507.652C930.991,508.252 931.791,507.952 933.491,505.752C934.691,504.352 936.591,503.252 937.791,503.252C938.991,503.252 939.991,502.752 939.991,502.152C939.991,501.452 940.991,501.252 942.591,501.652C944.591,502.152 945.891,501.752 947.591,500.152C950.491,497.452 950.691,495.252 947.991,495.252C946.391,495.252 946.091,494.752 946.691,492.252C947.291,488.952 946.091,488.352 943.591,490.752ZM944.991,496.252C944.991,496.752 944.491,497.252 943.891,497.252C943.391,497.252 943.191,496.752 943.491,496.252C943.791,495.652 944.291,495.252 944.591,495.252C944.791,495.252 944.991,495.652 944.991,496.252ZM936.991,501.252C936.991,501.752 936.291,502.252 935.491,502.252C934.691,502.252 933.991,501.752 933.991,501.252C933.991,500.652 934.691,500.252 935.491,500.252C936.291,500.252 936.991,500.652 936.991,501.252ZM910.991,490.152C916.521,493.828 903.957,497.142 908.184,492.412C901.415,493.387 896.901,499.213 894.417,505.136C891.208,510.853 886.923,515.611 883.822,521.029C881.815,526.676 879.84,531.754 876.79,537.025C872.821,542.854 872.063,549.959 868.202,556.086C868.346,564.381 866.138,572.502 865.233,580.73C865.178,587.639 862.507,594.327 863.468,601.318C863.019,611.652 861.157,621.988 861.717,632.387C860.897,638.474 866.317,647.307 873.249,644.548C880.569,640.966 875.052,632.453 877.759,626.57C878.238,619.398 881.589,612.75 881.105,605.472C880.416,599.65 884.726,595.144 884.95,589.506C884.129,583.579 889.741,579.244 889.353,573.377C892.504,570.674 895.46,564.147 893.53,562.449C898.63,563.586 897.886,556.986 898.725,555.792C903.453,553.093 907.68,546.301 907.622,541.295C905.854,537.59 914.404,541.279 910.734,536.468C911.179,534.423 914.174,535.284 912.533,532.482C918.734,534.483 916.176,528.708 912.531,527.403C910.9,526.791 917.517,526.072 917.881,523.111C920.414,518.987 925.372,518.619 927.973,514.212C930.54,514.55 936.758,511.91 930.798,511.644C928.131,509.889 917.625,505.972 918.416,512.998C922.081,514.637 919.946,520.311 916.692,516.551C915.24,516.991 909.004,517.34 908.778,521.035C904.368,522.394 902.782,527.062 902.365,530.291C898.067,533.342 897.48,537.539 892.348,539.959C886.663,543.357 893.881,532.991 893.501,530.154C894.091,528.138 894.318,526.113 896.485,527.465C899.203,522.286 903.87,518.675 906.824,513.194C909.699,511.258 908.84,510.255 908.127,507.658C911.995,505.765 915.25,503.52 912.827,498.901C913.548,495.627 917.944,489.366 910.991,490.152L910.991,490.152ZM907.891,500.952C907.193,506.26 899.011,500.65 905.747,499.358C906.632,499.578 907.445,500.13 907.891,500.952ZM906.291,509.752C904.929,517.591 901.434,504.5 906.291,509.752ZM913.991,521.752C907.071,525.334 914.931,516.103 913.991,521.752ZM885.991,548.152C886.286,551.346 880.483,555.786 883.662,550.507C883.292,548.575 884.46,543.481 885.991,548.152ZM883.991,557.652C882.557,560.127 882.492,565.671 880.67,559.988C880.145,558.303 883.199,554.12 883.991,557.652ZM947.991,488.652C947.991,489.652 950.791,489.952 952.091,489.152C953.091,488.552 952.791,488.252 950.791,488.252C949.191,488.252 947.991,488.452 947.991,488.652ZM1103.99,487.552C1103.99,488.352 1104.69,489.252 1105.49,489.652C1106.29,489.952 1106.99,489.952 1106.99,489.652C1106.99,489.352 1106.29,488.452 1105.49,487.652C1104.19,486.352 1103.99,486.352 1103.99,487.552ZM1076.99,484.252C1076.99,484.752 1077.49,485.252 1077.99,485.252C1078.59,485.252 1078.99,484.752 1078.99,484.252C1078.99,483.652 1078.59,483.252 1077.99,483.252C1077.49,483.252 1076.99,483.652 1076.99,484.252ZM912.991,482.652C912.991,482.952 913.491,483.452 913.991,483.752C914.591,484.052 914.991,483.852 914.991,483.352C914.991,482.752 914.591,482.252 913.991,482.252C913.491,482.252 912.991,482.452 912.991,482.652ZM972.991,481.252C972.991,481.752 973.591,482.252 974.391,482.252C975.191,482.252 976.191,481.752 976.491,481.252C976.791,480.652 976.191,480.252 975.091,480.252C973.891,480.252 972.991,480.652 972.991,481.252ZM961.491,481.252C961.791,481.752 962.491,482.252 963.091,482.252C963.591,482.252 963.991,481.752 963.991,481.252C963.991,480.652 963.291,480.252 962.391,480.252C961.591,480.252 961.191,480.652 961.491,481.252ZM876.291,480.952C874.791,481.552 874.591,484.252 875.991,484.252C876.491,484.252 877.391,483.352 877.991,482.252C879.091,480.252 878.591,479.952 876.291,480.952ZM978.291,478.852C978.591,479.152 979.491,479.252 980.191,478.952C980.991,478.652 980.691,478.352 979.591,478.352C978.491,478.252 977.891,478.552 978.291,478.852ZM885.891,477.652C885.591,478.052 885.491,479.452 885.791,480.752C886.091,482.552 886.891,483.252 888.391,483.252C890.291,483.152 890.291,483.052 888.891,481.952C887.991,481.252 887.091,479.852 886.891,478.852C886.691,477.852 886.191,477.352 885.891,477.652ZM995.291,474.852C995.591,475.152 996.491,475.252 997.191,474.952C997.991,474.652 997.691,474.352 996.591,474.352C995.491,474.252 994.891,474.552 995.291,474.852ZM893.191,472.852C890.291,474.852 890.391,476.252 893.391,476.252C895.991,476.252 898.491,473.852 897.491,472.252C896.691,470.852 895.791,470.952 893.191,472.852ZM816.691,471.752C815.791,472.652 814.991,473.852 814.991,474.352C814.991,474.852 814.491,475.252 813.891,475.252C813.291,475.252 811.691,476.052 810.391,477.152C807.591,479.352 808.591,480.652 813.591,481.552C816.191,482.052 816.891,481.752 817.791,479.652C818.491,478.252 819.791,477.252 820.991,477.252C823.191,477.252 822.891,476.152 819.791,471.852C818.491,470.152 818.291,470.152 816.691,471.752ZM1002.69,464.852C1001.89,465.652 1002.79,467.252 1004.09,467.252C1004.59,467.252 1004.99,466.552 1004.99,465.752C1004.99,464.252 1003.79,463.752 1002.69,464.852ZM1229.99,458.252C1228.59,459.252 1227.89,460.452 1228.29,460.852C1228.69,461.252 1228.99,461.052 1228.99,460.452C1228.99,459.752 1229.59,459.252 1230.39,459.252C1231.19,459.252 1232.19,458.752 1232.49,458.152C1233.69,456.352 1232.49,456.352 1229.99,458.252ZM999.291,444.852C999.591,445.152 1000.49,445.252 1001.19,444.952C1001.99,444.652 1001.69,444.352 1000.59,444.352C999.491,444.252 998.891,444.552 999.291,444.852ZM1337.99,440.152C1337.99,440.752 1338.49,441.252 1338.99,441.252C1339.59,441.252 1339.99,441.052 1339.99,440.852C1339.99,440.552 1339.59,440.052 1338.99,439.752C1338.49,439.452 1337.99,439.652 1337.99,440.152ZM1421.49,438.252C1421.99,439.752 1421.69,440.252 1420.09,440.252C1417.29,440.252 1416.39,442.352 1418.39,443.852C1419.49,444.552 1419.89,445.652 1419.49,446.352C1418.89,447.252 1419.59,447.352 1422.39,446.852C1426.29,446.152 1427.69,447.952 1423.99,448.952C1420.89,449.752 1421.59,451.052 1425.79,451.852C1427.79,452.252 1428.79,452.752 1427.99,453.052C1425.49,453.852 1423.89,457.252 1425.99,457.252C1426.59,457.252 1428.29,458.352 1429.79,459.752C1431.29,461.152 1433.09,462.252 1433.79,462.252C1434.49,462.252 1434.89,462.652 1434.49,463.152C1434.19,463.752 1435.29,466.652 1436.99,469.752C1438.59,472.752 1439.99,475.952 1439.99,476.752C1439.99,477.652 1441.09,480.052 1442.49,482.252C1443.89,484.452 1444.99,486.452 1444.99,486.752C1444.99,487.052 1445.79,489.052 1446.69,491.252C1447.79,493.752 1449.09,495.252 1450.19,495.252C1451.19,495.252 1451.99,494.752 1451.99,494.252C1451.99,493.652 1453.19,493.152 1454.79,493.152L1457.49,493.052L1454.49,492.352C1451.79,491.752 1450.99,489.752 1453.49,489.752C1454.09,489.752 1454.59,489.352 1454.79,488.952C1455.29,487.252 1454.89,486.452 1452.79,485.952C1451.09,485.452 1450.89,485.052 1451.89,483.952C1452.79,482.752 1452.69,482.352 1451.49,481.852C1450.59,481.552 1449.99,480.052 1449.99,478.152C1449.99,475.152 1447.79,471.452 1443.29,466.852C1441.99,465.552 1440.99,463.852 1440.99,462.952C1440.99,462.052 1440.59,461.052 1439.99,460.752C1439.49,460.452 1438.99,459.452 1438.99,458.652C1438.99,457.852 1438.39,456.452 1437.79,455.652C1434.59,451.952 1430.19,447.452 1428.79,446.652C1427.99,446.152 1426.29,443.652 1425.09,440.952C1422.89,436.352 1420.29,434.352 1421.49,438.252ZM1432.99,455.352C1432.99,455.852 1432.59,456.052 1431.99,455.752C1431.49,455.452 1430.99,454.952 1430.99,454.652C1430.99,454.452 1431.49,454.252 1431.99,454.252C1432.59,454.252 1432.99,454.752 1432.99,455.352ZM1319.69,432.652C1320.09,434.752 1320.49,434.952 1321.99,433.952C1323.69,432.952 1323.69,432.752 1322.19,431.552C1319.69,429.752 1319.19,429.952 1319.69,432.652ZM1057.59,431.752C1057.29,432.552 1057.49,433.252 1057.99,433.252C1058.59,433.252 1058.99,432.552 1058.99,431.752C1058.99,430.952 1058.79,430.252 1058.59,430.252C1058.39,430.252 1057.99,430.952 1057.59,431.752ZM1406.29,425.652C1403.99,426.752 1403.39,428.352 1404.79,429.652C1405.19,430.052 1405.49,431.852 1405.49,433.552C1405.49,436.452 1405.89,436.852 1408.99,437.252C1411.59,437.652 1412.49,438.252 1412.39,439.552C1412.19,440.952 1412.49,441.052 1413.49,440.252C1414.29,439.652 1414.59,438.452 1414.29,437.652C1413.69,436.052 1416.49,435.652 1417.49,437.252C1418.59,439.052 1419.79,437.352 1419.19,434.752C1418.69,431.952 1417.99,431.652 1416.19,433.452C1415.29,434.352 1414.59,434.152 1413.19,432.652C1412.19,431.552 1411.49,430.152 1411.69,429.552C1412.19,428.152 1410.29,424.152 1409.19,424.352C1408.79,424.452 1407.49,424.952 1406.29,425.652ZM1409.49,434.252C1409.79,434.752 1409.39,435.252 1408.59,435.252C1407.69,435.252 1406.99,434.752 1406.99,434.252C1406.99,433.652 1407.39,433.252 1407.89,433.252C1408.49,433.252 1409.19,433.652 1409.49,434.252ZM1332.69,426.252C1332.39,427.452 1331.29,428.252 1330.19,428.252C1327.69,428.252 1326.29,431.252 1328.79,431.352C1329.69,431.452 1331.29,431.452 1332.29,431.352C1333.19,431.252 1333.99,431.552 1333.99,432.152C1333.99,433.952 1338.29,437.252 1340.69,437.252C1342.29,437.252 1342.99,436.652 1342.99,435.352C1342.99,434.252 1343.29,432.752 1343.59,431.952C1344.19,430.352 1339.99,428.752 1338.99,430.152C1338.69,430.652 1337.49,430.652 1336.19,430.152C1334.29,429.452 1334.09,428.952 1334.99,427.352C1336.29,424.752 1336.29,424.252 1334.59,424.252C1333.89,424.252 1332.99,425.152 1332.69,426.252ZM1277.19,405.252C1277.69,406.752 1279.29,406.952 1279.79,405.452C1279.99,404.852 1279.39,404.252 1278.49,404.252C1277.59,404.252 1276.99,404.652 1277.19,405.252ZM1326.99,403.252C1326.99,403.852 1325.59,404.952 1323.89,405.652C1319.79,407.352 1321.19,408.152 1327.99,407.952C1334.19,407.652 1335.89,405.452 1331.49,403.452C1328.29,401.952 1326.99,401.952 1326.99,403.252ZM1283.99,400.752C1283.99,401.652 1284.59,402.252 1285.29,401.952C1286.69,401.552 1286.49,399.952 1284.99,399.452C1284.49,399.252 1283.99,399.852 1283.99,400.752ZM971.591,396.952C971.291,397.252 971.291,397.952 971.591,398.352C972.291,399.552 974.991,399.452 974.991,398.352C974.991,397.252 972.391,396.152 971.591,396.952ZM1489.69,395.652C1488.99,397.552 1490.79,398.852 1492.09,397.552C1492.69,396.952 1492.59,396.152 1491.69,395.352C1490.49,394.452 1490.09,394.552 1489.69,395.652ZM1377.19,387.452C1377.49,388.152 1378.39,388.852 1379.29,389.052C1380.49,389.252 1380.79,388.952 1380.39,387.852C1379.69,385.952 1376.59,385.652 1377.19,387.452ZM1435.99,380.852C1435.99,382.452 1436.89,382.652 1438.79,381.352C1439.79,380.752 1439.69,380.352 1438.09,379.952C1436.69,379.652 1435.99,379.952 1435.99,380.852ZM1370.99,377.752C1370.99,378.452 1370.29,379.552 1369.49,380.052C1367.49,381.052 1368.59,384.252 1370.89,384.252C1374.19,384.252 1375.09,382.852 1373.89,379.452C1372.79,376.152 1370.99,375.152 1370.99,377.752ZM1346.29,372.852C1345.39,375.152 1347.59,376.852 1349.49,375.252C1350.69,374.252 1350.99,374.252 1350.99,375.652C1350.99,377.252 1352.59,377.652 1356.49,377.252C1359.09,376.952 1359.19,376.852 1358.39,374.952C1357.29,371.952 1347.29,370.252 1346.29,372.852ZM1364.29,371.452C1361.69,372.652 1361.29,374.252 1363.49,374.252C1364.29,374.252 1365.39,373.352 1365.99,372.252C1366.59,371.152 1366.89,370.252 1366.79,370.352C1366.59,370.352 1365.49,370.852 1364.29,371.452ZM1333.99,368.252C1333.99,368.752 1334.69,369.252 1335.49,369.252C1336.29,369.252 1336.99,368.752 1336.99,368.252C1336.99,367.652 1336.29,367.252 1335.49,367.252C1334.69,367.252 1333.99,367.652 1333.99,368.252ZM1338.89,369.252C1336.59,371.452 1334.89,372.152 1333.29,371.852C1330.69,371.152 1325.69,372.752 1327.99,373.552C1331.49,374.752 1337.89,375.152 1338.49,374.252C1338.79,373.752 1340.19,373.252 1341.59,373.252C1342.99,373.252 1343.99,372.652 1343.99,371.852C1343.99,371.052 1345.19,370.152 1346.79,369.752L1349.49,369.052L1346.09,367.652C1344.29,366.852 1342.69,366.252 1342.59,366.252C1342.49,366.252 1340.79,367.652 1338.89,369.252ZM1454.59,361.752C1452.79,363.052 1452.89,363.152 1455.39,363.852C1457.39,364.352 1457.99,365.052 1457.99,367.352C1457.99,369.052 1458.79,370.752 1460.29,371.752C1462.29,373.252 1462.39,373.452 1460.79,374.652C1459.19,375.852 1459.19,376.052 1461.09,378.052C1463.39,380.652 1464.79,380.852 1465.59,378.752C1465.99,377.952 1466.59,377.452 1467.09,377.752C1467.49,378.052 1467.69,378.952 1467.39,379.752C1466.99,380.652 1467.49,381.552 1468.59,381.952C1469.69,382.252 1472.29,383.852 1474.59,385.452C1478.39,388.152 1481.99,388.452 1481.99,386.152C1481.99,385.052 1483.09,385.052 1484.89,386.152C1485.69,386.652 1485.99,387.752 1485.59,388.952C1485.09,390.452 1484.29,390.852 1482.19,390.552L1479.49,390.052L1481.89,391.752C1483.89,393.352 1484.69,393.352 1488.19,392.152C1492.19,390.852 1494.39,388.252 1492.19,387.452C1491.49,387.252 1490.99,386.452 1490.99,385.752C1490.99,383.852 1489.09,382.852 1487.69,384.052C1485.79,385.652 1482.99,383.052 1483.69,380.352C1484.19,378.452 1483.99,378.152 1482.39,378.552C1476.49,380.152 1473.19,380.252 1472.59,378.752C1472.29,377.952 1472.29,376.552 1472.59,375.752C1472.99,374.852 1472.59,374.252 1471.59,374.252C1470.39,374.252 1469.99,373.252 1469.99,370.752C1469.99,368.852 1469.59,367.252 1468.99,367.252C1468.49,367.252 1467.99,368.152 1467.99,369.152C1467.99,371.652 1465.99,372.952 1464.99,371.252C1464.59,370.552 1463.69,370.352 1463.09,370.652C1461.99,371.352 1461.49,369.552 1461.89,365.452C1461.99,363.952 1461.49,363.252 1460.39,363.252C1459.09,363.252 1458.99,362.952 1459.99,361.752C1460.99,360.452 1460.89,360.252 1458.89,360.252C1457.59,360.252 1455.69,360.952 1454.59,361.752ZM1330.79,361.452C1331.69,362.352 1332.29,362.352 1333.19,361.452C1334.09,360.552 1333.89,360.252 1331.99,360.252C1330.09,360.252 1329.89,360.552 1330.79,361.452ZM1450.49,357.252C1450.19,357.752 1448.79,358.252 1447.49,358.252C1445.29,358.252 1443.29,359.852 1444.19,360.852C1444.89,361.452 1453.99,357.952 1453.99,357.052C1453.99,355.852 1451.19,356.052 1450.49,357.252ZM877.991,322.852C877.991,323.652 878.491,324.052 878.991,323.752C879.591,323.452 879.991,322.752 879.991,322.152C879.991,321.652 879.591,321.252 878.991,321.252C878.491,321.252 877.991,321.952 877.991,322.852ZM1098.29,263.252C1095.89,264.252 1095.09,267.252 1097.29,267.252C1097.99,267.252 1099.39,268.852 1100.39,270.752C1101.39,272.652 1103.09,274.452 1104.19,274.852C1105.19,275.152 1105.99,276.152 1105.89,277.052C1105.49,279.852 1107.69,283.952 1109.89,284.552C1111.19,284.852 1112.19,286.452 1112.99,289.252C1113.79,292.052 1114.59,293.252 1115.49,292.952C1116.19,292.652 1116.99,293.252 1117.29,294.352C1117.59,295.452 1118.69,296.252 1119.89,296.252C1121.09,296.252 1122.29,296.352 1122.69,296.452C1122.99,296.652 1123.49,296.252 1123.69,295.552C1123.89,294.952 1122.49,292.652 1120.59,290.452C1118.59,288.252 1116.99,286.252 1116.99,285.852C1116.99,285.452 1116.49,284.652 1115.99,283.952C1113.39,280.852 1109.89,275.452 1108.89,272.952C1108.09,270.952 1107.19,270.252 1105.99,270.552C1104.69,270.852 1104.39,270.552 1104.69,269.152C1105.09,267.852 1104.49,266.952 1102.49,266.252C1100.69,265.552 1099.99,264.752 1100.39,263.752C1100.69,262.952 1100.79,262.252 1100.69,262.352C1100.59,262.352 1099.49,262.752 1098.29,263.252ZM1087.29,252.852C1086.49,255.152 1089.09,259.352 1092.39,260.952C1095.59,262.452 1095.99,262.452 1097.49,260.852C1098.39,259.952 1099.69,259.252 1100.29,259.152C1100.99,259.152 1099.89,258.552 1098.09,257.852C1095.89,257.052 1094.99,256.352 1095.79,255.852C1096.49,255.452 1096.99,254.552 1096.99,253.752C1096.99,252.152 1087.99,251.152 1087.29,252.852ZM1181.29,454.852C1181.59,455.152 1182.49,455.252 1183.19,454.952C1183.99,454.652 1183.69,454.352 1182.59,454.352C1181.49,454.252 1180.89,454.552 1181.29,454.852ZM1185.99,451.252C1185.99,451.752 1186.19,452.252 1186.39,452.252C1186.69,452.252 1187.19,451.752 1187.49,451.252C1187.79,450.652 1187.59,450.252 1187.09,450.252C1186.49,450.252 1185.99,450.652 1185.99,451.252ZM1180.99,448.352C1182.29,450.752 1182.59,450.752 1185.59,448.352L1187.99,446.452L1183.99,446.452C1180.29,446.352 1180.09,446.552 1180.99,448.352ZM1190.49,446.252C1190.09,446.852 1191.09,447.252 1192.69,447.252C1194.89,447.252 1195.19,447.052 1193.99,446.252C1192.09,445.052 1191.29,445.052 1190.49,446.252ZM1195.99,437.252C1195.99,438.252 1195.19,439.652 1194.29,440.152C1191.89,441.552 1193.59,441.552 1196.09,440.152C1197.59,439.452 1198.49,439.452 1199.59,440.352C1201.29,441.752 1201.29,441.252 1199.99,437.852C1198.89,434.852 1195.99,434.352 1195.99,437.252ZM1278.99,458.252C1278.99,458.752 1279.49,459.252 1279.99,459.252C1280.59,459.252 1280.99,458.752 1280.99,458.252C1280.99,457.652 1280.59,457.252 1279.99,457.252C1279.49,457.252 1278.99,457.652 1278.99,458.252ZM1268.89,451.952C1267.59,453.552 1267.69,453.652 1269.29,452.352C1270.19,451.652 1270.99,450.852 1270.99,450.652C1270.99,449.852 1270.19,450.352 1268.89,451.952ZM1012.99,373.152C1012.99,373.652 1013.29,374.852 1013.59,375.752C1014.09,377.052 1014.39,377.152 1015.09,376.052C1016.39,374.052 1016.19,372.252 1014.49,372.252C1013.69,372.252 1012.99,372.652 1012.99,373.152ZM1018.49,368.152C1017.99,369.052 1021.99,372.652 1022.69,371.952C1022.79,371.752 1022.69,370.652 1022.29,369.452C1021.79,367.252 1019.59,366.452 1018.49,368.152ZM1027.29,368.352C1028.69,370.652 1027.49,373.252 1024.99,373.252C1023.89,373.252 1022.99,373.652 1022.99,374.252C1022.99,375.952 1026.29,375.352 1030.19,372.952C1033.39,370.952 1033.69,370.552 1032.19,369.552C1030.69,368.552 1030.69,368.252 1031.99,367.352C1033.09,366.652 1032.49,366.452 1029.89,366.552C1026.89,366.752 1026.49,367.052 1027.29,368.352ZM1079.99,395.252C1079.99,395.752 1080.49,396.252 1080.99,396.252C1081.59,396.252 1081.99,395.752 1081.99,395.252C1081.99,394.652 1081.59,394.252 1080.99,394.252C1080.49,394.252 1079.99,394.652 1079.99,395.252ZM1140.99,387.652C1140.99,387.952 1141.49,388.452 1141.99,388.752C1142.59,389.052 1142.99,388.852 1142.99,388.352C1142.99,387.752 1142.59,387.252 1141.99,387.252C1141.49,387.252 1140.99,387.452 1140.99,387.652ZM1133.39,387.752C1135.99,389.652 1137.59,389.652 1135.99,387.752C1135.29,386.952 1133.99,386.252 1133.09,386.252C1131.79,386.352 1131.79,386.552 1133.39,387.752ZM1087.69,369.852C1086.89,370.652 1087.79,372.252 1089.09,372.252C1089.59,372.252 1089.99,371.552 1089.99,370.752C1089.99,369.252 1088.79,368.752 1087.69,369.852ZM1091.69,352.952C1092.39,353.152 1093.79,353.152 1094.69,352.952C1095.69,352.652 1095.19,352.452 1093.49,352.452C1091.89,352.452 1091.09,352.652 1091.69,352.952ZM1115.99,344.252C1114.49,344.552 1113.99,345.152 1114.69,345.552C1115.29,345.952 1116.79,345.852 1118.09,345.452C1120.99,344.352 1119.29,343.352 1115.99,344.252ZM1123.99,342.252C1123.99,342.752 1124.49,343.252 1124.99,343.252C1125.59,343.252 1125.99,342.752 1125.99,342.252C1125.99,341.652 1125.59,341.252 1124.99,341.252C1124.49,341.252 1123.99,341.652 1123.99,342.252ZM980.391,343.752C978.591,345.152 978.591,345.152 980.691,345.252C982.991,345.252 984.591,343.752 983.191,342.852C982.691,342.552 981.391,342.952 980.391,343.752ZM968.691,335.952C966.891,337.652 968.091,339.452 970.591,338.952C972.591,338.652 973.391,339.052 974.191,340.852C976.091,344.952 978.991,343.352 978.991,338.252C978.991,337.052 977.991,336.252 975.891,335.852C971.791,335.052 969.491,335.052 968.691,335.952ZM1213.59,361.752C1213.99,362.552 1214.39,363.252 1214.59,363.252C1214.79,363.252 1214.99,362.552 1214.99,361.752C1214.99,360.952 1214.59,360.252 1213.99,360.252C1213.49,360.252 1213.29,360.952 1213.59,361.752ZM1237.19,339.452C1235.29,341.352 1235.79,342.452 1237.99,341.252C1239.09,340.652 1239.99,339.752 1239.99,339.252C1239.99,337.852 1238.59,338.052 1237.19,339.452ZM1246.29,331.952C1244.89,332.452 1244.49,335.252 1245.79,335.252C1246.79,335.152 1249.99,332.652 1249.99,331.852C1249.99,331.152 1248.09,331.152 1246.29,331.952ZM1258.69,287.852C1257.89,288.652 1258.79,290.252 1260.09,290.252C1260.59,290.252 1260.99,289.552 1260.99,288.752C1260.99,287.252 1259.79,286.752 1258.69,287.852ZM1252.19,276.452C1252.49,277.152 1253.89,277.852 1255.39,278.052C1257.39,278.352 1258.09,278.052 1257.79,277.052C1257.49,276.352 1256.09,275.652 1254.59,275.452C1252.59,275.152 1251.89,275.452 1252.19,276.452ZM967.491,197.352C940.941,202.094 914.407,209.335 891.703,218.815C861.404,221.275 843.625,281.218 889.491,263.252C907.631,252.384 943.199,240.396 919.116,273.052C891.004,293.975 937.471,294.523 938.791,284.652C967.17,275.779 996.006,267.059 1025.34,259.577C1044.22,248.09 1081.21,252.952 1090.14,245.602C1108.19,238.848 1142.34,255.031 1140.95,277.377C1148.19,288.986 1167.76,270.182 1172.99,294.252C1184.41,309.981 1212.59,346.783 1198.39,357.752C1179.23,342.879 1166.08,297.574 1133.63,314.69C1123.73,292.397 1116.93,302.472 1128.82,317.393C1097.63,311.37 1068,290.945 1034.01,291.31C996.678,285.858 961.105,300.623 923.953,300.715C897.204,302.238 884.197,330.776 865.591,324.252C844.772,329.457 826.561,341.331 806.391,344.79C781.27,362.874 820.32,367.42 833.491,353.252C845.627,344.788 878.636,345.03 855.991,366.552C852.055,386.256 842.223,411.349 815.691,414.252C793.577,427.214 771.902,432.872 750.191,448.252C732.038,462.678 715.489,477.804 699.491,496.952C684.524,514.488 664.3,546.825 683.091,566.652C694.145,552.364 695.698,530.41 708.491,515.852C725.779,496.706 741.49,475.089 764.553,465.015C783.466,450.038 796.738,438.394 815.591,432.152C826.71,431.874 835.367,419.759 847.391,423.152C854.544,421.208 896.799,395.785 885.991,416.252C874.421,420.923 861.568,427.655 868.591,428.752C858.74,430.8 844.24,443.511 831.378,454.002C813.569,464.071 826.611,480.262 835.003,463.265C849.62,450.428 866.172,437.026 880.991,426.252C900.345,408.115 929.326,397.12 954.191,399.252C956.206,390.049 968.727,398.355 979.991,394.952C1000.83,400.734 979.475,408.458 967.653,416.727C944.706,425.058 920.099,427.598 899.778,442.415C877.532,448.758 854.533,463.601 837.791,474.552C832.031,475.268 821.394,505.717 809.491,515.852C801.482,521.834 783.379,541.277 786.791,526.552C795.975,515.168 825.114,471.631 799.178,490.602C778.441,500.367 781.672,531.55 767.733,548.376C745.504,560.849 758.611,616.535 770.491,575.952C779.967,555.896 795.567,544.497 811.691,531.352C834.335,522.366 844.494,503.616 868.991,499.252C883.535,492.467 910.956,482.741 878.091,487.052C865.321,482.253 838.705,508.392 856.166,480.49C888.598,460.496 923.177,444.024 959.991,433.552C989.998,431.517 1030.62,403.646 1053.99,424.952C1063.12,433.788 1051.08,400.471 1075.76,410.908C1086.44,407.874 1108.56,429.347 1104.42,435.362C1118.18,445.865 1082.09,429.688 1094.58,427.302C1075.82,425.562 1078.83,444.721 1055.9,436.177C1047.11,457.454 1039.14,437.208 1039.09,443.552C1019.41,442.24 1005.2,449.585 987.491,446.99C986.407,441.971 951.559,457.614 955.766,456.79C954.562,444.942 929.123,463.361 921.991,468.352C902.954,469.818 909.216,477.583 910.791,475.952C895,481.005 888.324,479.097 906.728,482.952C910.53,494.788 916.381,471.553 922.503,484.702C914.404,495.423 957.622,468.1 953.966,471.377C954.228,472.941 998.364,450.033 991.953,465.765C979.7,470.46 984.616,483.644 994.191,463.152C999.296,454.3 1047.6,461.053 1028.79,465.252C1031.39,486.472 1013.44,474.017 1005.29,487.627C977.195,496.826 964.853,527.481 947.091,549.452C945.465,568.477 935.276,603.146 950.791,616.052C956.485,603.957 963.025,584.25 969.141,576.89C980.547,566.009 981.948,542.593 966.391,561.152C991.488,548.588 956.582,588.624 958.149,571.362C967.821,565.3 964.782,536.342 985.691,532.852C999.997,517.303 1006.83,506.411 1018.17,498.927C1019.19,518.381 1020.41,517.549 1013.74,540.283C1013.94,555.295 982.202,605.773 1011.94,593.765C1007.92,586.483 1030.83,580.421 1033.49,571.252C1035.8,568.065 1051.71,554.482 1050.69,555.552C1057.71,546.808 1062.39,544.359 1071.99,531.652C1086.54,521.291 1085.81,517.443 1096.57,509.665C1115.21,489.143 1109.63,531.267 1108.46,545.308C1113.18,559.878 1129.41,524.994 1124.89,525.752C1134.62,514.404 1112.4,508.356 1107.49,492.077C1093.7,486.912 1086.5,498.758 1082.1,507.002C1073.1,515.568 1062.85,523.418 1055.83,533.402C1048.96,542.794 1033.8,548.932 1038.99,553.752C1030.01,556.585 1013.59,582.989 1022.5,552.623C1028.96,534.93 1032.68,513.765 1042.09,500.652C1052.17,496.781 1043.5,492.679 1057.09,486.352C1031.5,488.262 1084.62,466.05 1058.99,483.152C1067.15,485.537 1085.36,481.681 1072.49,476.852C1087.38,472.528 1096.25,469.241 1103.79,468.252C1112.43,481.444 1133,511.814 1124.99,478.152C1129.87,468.267 1148.73,486.618 1149.04,497.09C1133.19,515.486 1164.23,496.194 1171.51,507.874C1185.09,518.18 1163.55,517.165 1172.39,522.152C1157.54,533.378 1135.46,541.429 1155.99,561.052C1146.36,572.341 1157.69,603.969 1169.38,584.302C1181.92,592.473 1195.1,565.098 1202.89,578.652C1212.08,575.86 1193.25,569.453 1210.99,573.752C1208.23,565.548 1235.1,561.171 1206.99,562.752C1199.12,565.867 1170.5,571.631 1167.49,567.252C1183.34,557.764 1162.31,562.3 1176.09,550.752C1181.81,532.557 1177.35,572.996 1185.63,551.89C1201.51,560.655 1234.33,533.315 1257.09,551.852C1276.96,576.493 1293.44,546.677 1266.39,538.352C1248.77,526.848 1223.1,528.151 1207.39,531.552C1193.22,536.467 1158.99,525.841 1187.69,516.852C1199.21,520.135 1187.8,490.569 1204.99,505.252C1221.66,490.219 1238.21,511.401 1257.19,516.452C1267.35,517.32 1278.77,525.134 1269.03,504.29C1250.42,493.582 1223.86,497.31 1214.33,486.597C1204.65,494.786 1206,469.851 1216.99,472.452C1199.27,453.699 1234.96,468.251 1214.17,456.158C1223.79,457.522 1239.08,451.705 1244.03,455.352C1257.97,463.672 1263.36,463.589 1277.28,476.115C1287.56,483.448 1302.76,501.8 1311.79,513.552C1319.61,529.58 1352.45,548.797 1352.34,559.905C1371.58,581.967 1378.48,614.23 1381.49,643.852C1378.26,680.702 1409.63,661.161 1393.17,639.14C1401.43,615.974 1378.82,592.279 1380.99,569.752C1387.4,529.75 1402.19,579.037 1413.99,592.252C1430.3,605.335 1424.46,661.668 1446.49,649.552C1439.99,620.495 1431.64,592.172 1421.59,564.352C1414.82,546.066 1413.95,522.96 1408.26,508.946C1406.55,496.216 1394.53,465.855 1419.19,487.952C1428.98,495.451 1437.48,521.188 1448.23,540.265C1452.08,553.848 1473.21,608.582 1472.89,565.752C1467.26,543.138 1465.81,523.26 1458.59,501.652C1438.33,487.091 1464.42,529.272 1458.1,525.252C1447.8,523.832 1433.05,477.997 1411.79,468.752C1386.04,459.4 1388.81,432.304 1368.59,419.752C1358.99,407.037 1319.44,418.595 1347.79,423.552C1362.33,418.62 1385.83,454.885 1369.59,446.152C1361.92,438.25 1357.45,444.17 1345.49,434.252C1351.88,452.044 1372.94,454.446 1379.39,462.652C1397.78,473.849 1399.24,505.975 1404.49,527.152C1409.16,543.772 1415.61,583.622 1396.99,548.752C1387.61,529.89 1373.32,515.912 1365.44,496.977C1357.28,493.014 1352.1,472.016 1342.49,461.452C1341.42,444.218 1297.05,426.304 1332.09,424.952C1331.58,412.697 1327.85,418.13 1314.59,414.815C1281.17,416.08 1342.24,397.045 1313.79,400.652C1304.35,411.51 1298.26,395.903 1281.28,405.424C1283.65,418.703 1255.35,394.924 1279.82,397.627C1273.42,397.157 1256.66,389.199 1275.74,393.427C1281.04,385.704 1291.43,404.586 1282.45,384.332C1263.79,391.471 1305.33,361.175 1289.29,381.752C1297.1,371.227 1327.37,384.009 1326.99,374.252C1326.33,365.128 1330.96,365.91 1320.7,360.88C1330.78,349.956 1334,355.232 1353.19,348.452C1374.29,342.331 1381.57,374.42 1400.12,354.59C1416.84,356.439 1430.73,384.019 1436.99,371.752C1443.35,381.897 1448.53,393.634 1456.79,392.952C1459,403.85 1460.84,392.741 1467.49,410.652C1495.13,442.881 1446.46,410.666 1434.49,401.552C1413.8,399.234 1405.25,379.644 1382.98,380.865C1363.77,379.771 1405.3,393.929 1392.09,394.252C1408.08,386.731 1415.91,412.932 1390.2,400.665C1380.11,401.745 1353.99,385.884 1335.83,394.698C1354.09,406.099 1323.46,410.986 1352.99,406.952C1373.46,407.727 1391.87,415.591 1392.79,420.652C1397.69,397.432 1400.05,452.127 1401,422.277C1404.46,420.028 1415.96,404.391 1422.13,421.127C1439.51,413.481 1450.51,438.143 1471.49,442.252C1480.15,453.505 1505.9,476.752 1502.88,449.99C1512.48,471.609 1532.86,493.654 1543.59,518.752C1544.48,537.977 1558.34,585.22 1561.94,541.265C1559.99,517.612 1548.26,499.409 1549.03,487.452C1538.83,486.746 1543.59,462.335 1536.09,453.252C1534.49,440.865 1524.92,444.792 1522.69,433.652C1536.1,430.422 1511.54,423.275 1517.23,409.602C1501.1,404.286 1490.3,383.776 1497.86,408.137C1515.35,417.142 1516.69,434.386 1528.39,454.452C1533.12,460.809 1542.69,485.78 1536.17,481.215C1509.35,446.556 1488.55,406.894 1453.59,379.352C1439.65,365.942 1425.25,352.148 1417.04,347.29C1401.61,340.734 1407.31,330.481 1431.79,332.852C1463.92,338.203 1495.77,352.214 1524.65,368.402C1549.85,379.495 1565.77,413.29 1587.04,419.202C1585.62,382.637 1553.09,355.466 1528.59,331.852C1511.84,324.596 1480.99,301.545 1466.57,317.265C1454.18,303.103 1394.26,325.803 1424.47,295.702C1447.49,284.909 1460.87,282.772 1488.17,284.677C1506.45,297.431 1531.67,317.606 1546.9,339.09C1574.62,347.481 1536.87,299.077 1523.79,290.052C1524.14,280.242 1566.75,296.225 1581.2,302.152C1603.55,284.277 1551.23,240.857 1524.49,258.052C1500.29,261.814 1481.12,262.866 1457.9,258.582C1428.41,255.763 1402.03,275.487 1389.99,241.952C1371.24,215.197 1331.4,215.101 1302.29,222.052C1282.75,225.232 1260.98,229.859 1239.1,228.713C1216.36,229.838 1204.77,201.15 1182.99,209.252C1168.13,199.086 1154.45,209.546 1134.75,206.752C1137.37,212.451 1102.21,195.941 1098.49,210.252C1084.14,204.902 1073.26,208.044 1055.99,209.052C1048.99,208.008 1024.24,203.527 1032.29,200.252C1014.29,193.365 997.273,201.833 984.391,196.252C978.047,200.864 973.328,194.853 967.491,197.352ZM1012.49,203.252C1011.24,213.532 1005.9,198.982 1012.49,203.252ZM982.191,207.452C971.019,227.448 925.157,235.372 917.791,245.252C906.126,236.915 870.551,264.348 875.491,243.852C889.639,234.643 902.03,224.019 908.914,221.365C932.379,216.108 961.655,211.641 982.191,207.452ZM1109.29,208.952C1111.66,217.376 1096.58,203.978 1109.29,208.952ZM1148.99,209.752C1144.36,215.431 1148.15,204.874 1148.99,209.752ZM1142.99,210.252C1140.44,213.838 1141.88,206.568 1142.99,210.252ZM1130.49,211.252C1124.91,214.916 1126.88,207.481 1130.49,211.252ZM1158.19,210.952C1152.67,211.78 1159.84,209.249 1158.19,210.952ZM1103.29,214.952C1119.28,213.776 1154.21,212.925 1177.72,215.202C1197.86,215.289 1220.71,227.149 1185.99,225.252C1161.63,225.869 1125.24,222.844 1109.44,226.502C1089.99,227.245 1068.69,213.222 1099.09,214.252C1099.42,212.33 1106.11,212.376 1103.29,214.952ZM1078.99,216.352C1073.3,224.099 1067.15,209.107 1078.99,216.352ZM1018.79,226.552C1031.79,221.023 1082.25,229.196 1052.2,240.94C1043.32,239.299 1018.75,250.474 1015.49,250.252C991.253,252.283 962.702,270.324 934.491,269.252C943.647,245.425 975.095,232.913 992.403,230.802C1002.27,230.894 1007.46,221.822 1018.79,226.552ZM983.791,229.152C982.45,233.319 979.355,223.042 983.791,229.152ZM1156.99,228.252C1154.44,231.84 1154.44,224.665 1156.99,228.252ZM1066.99,232.252C1064.44,235.838 1065.88,228.568 1066.99,232.252ZM1343.09,233.652C1363.53,234.661 1402.94,247.899 1387.55,268.552C1363.73,272.457 1341.31,277.774 1322.09,286.352C1289.19,305.108 1298.22,259.046 1278.49,246.652C1275.75,228.583 1309.74,238.705 1325.35,232.82C1331.27,232.939 1337.2,233.003 1343.09,233.652ZM1166.99,235.952C1171.08,241.837 1153.09,262.361 1141.99,251.952C1103.59,232.874 1150.23,235.218 1166.99,235.952ZM1193.49,245.252C1176.95,262.888 1178.36,238.403 1193.49,245.252ZM936.491,246.252C933.22,249.953 930.174,242.613 936.491,246.252ZM1057.19,246.952C1051.67,247.78 1058.84,245.249 1057.19,246.952ZM1260.69,249.852C1293.29,256.08 1296.85,312.536 1263.99,304.152C1246.95,291.313 1272.65,300.036 1249.49,283.352C1239.97,269.816 1208.83,237.568 1242.99,254.352C1249.65,272.165 1260.67,280.68 1249.49,256.577C1241.27,251.257 1249.62,240.655 1260.69,249.852ZM1004.99,253.752C1000.21,259.472 1001.7,248.584 1004.99,253.752ZM1215.49,258.252C1232.56,273.712 1257.22,298.784 1255.22,320.427C1251.87,336.258 1267.15,344.812 1246.35,338.077C1244.65,341.964 1240.09,344.974 1245.95,353.215C1233.76,351.819 1237.03,356.647 1235.33,347.486C1209.93,360.989 1237.76,350.338 1231.19,361.852C1213.17,369.466 1205.83,364.085 1205.99,340.752C1200.23,315.754 1184.76,292.652 1168.29,272.127C1180.97,264.907 1200.93,257.097 1215.49,258.252ZM1446.49,262.252C1442.88,266.023 1440.91,258.588 1446.49,262.252ZM1480.99,264.452C1478.5,267.358 1478.67,260.813 1480.99,264.452ZM1490.99,264.852C1487.74,268.346 1490.46,259.759 1490.99,264.852ZM1426.19,264.952C1420.67,265.78 1427.84,263.249 1426.19,264.952ZM1551.29,272.152C1560.24,283.112 1516.48,267.366 1547.28,271.315L1551.29,272.152ZM1558.99,277.252C1556.44,280.84 1556.44,273.665 1558.99,277.252ZM1425.79,281.552C1439.06,285.203 1394.78,294.788 1421.38,279.79L1425.79,281.552ZM1557.99,280.252C1555.44,283.84 1555.44,276.665 1557.99,280.252ZM1404.49,284.852C1408.65,300.834 1393.44,303.175 1393.29,309.452C1380.35,307.89 1361.58,326.02 1341.49,320.652C1329.22,313.645 1314.79,332.049 1314.33,315.902C1328.63,309.847 1340.63,296.721 1355.18,296.652C1368.2,291.395 1388.58,280.589 1404.49,284.852ZM1448.99,283.252C1446.5,286.97 1445.09,279.668 1448.99,283.252ZM1432.49,288.252C1413.3,296.466 1439.03,281.822 1432.49,288.252ZM1419.59,291.652C1425.85,300.927 1407.16,285.252 1419.59,291.652ZM1341.49,293.252C1338.94,296.838 1340.38,289.568 1341.49,293.252ZM1038.99,295.752C1036.51,301.021 1036.51,290.483 1038.99,295.752ZM1322.09,298.252C1325.09,308.875 1312.71,293.875 1322.09,298.252ZM1316.69,301.252C1328.21,313.794 1292.96,305.111 1316.69,301.252ZM1046.39,302.152C1044.1,307.257 1041.14,298.426 1046.39,302.152ZM1061.49,307.752C1080.78,311.038 1133.23,331.114 1085.64,334.277C1075.47,331.43 1027.3,299.545 1061.49,307.752ZM1302.29,309.952C1315.12,310.288 1299.5,320.196 1301.69,326.052C1296.01,333.295 1295.46,300.65 1302.29,309.952ZM1405.69,310.852C1416.23,330.286 1371.25,319.077 1405.69,310.852ZM1272.49,311.352C1273.26,316.57 1265.57,306.445 1272.49,311.352ZM999.391,313.252C1023.39,318.822 1063.16,320.703 1068.99,348.052C1053,327.756 1024.67,341.939 1002.89,341.152C995.514,344.311 1006.45,334.11 986.574,339.812C994.555,346.164 1006.17,349.516 982.816,355.652C960.338,373.84 931.813,376.049 904.491,379.952C887.735,388.204 856.064,387.191 883.792,362.005C898.081,338.497 923.838,338.129 940.891,342.752C952.498,340.329 977.27,341.669 957.028,333.29C943.911,334.444 897.412,338.412 932.791,322.852C953.036,309.509 976.353,310.467 999.391,313.252ZM1294.49,315.252C1290.59,318.836 1292,311.534 1294.49,315.252ZM1421.99,314.652C1419.24,320.048 1417.6,313.135 1421.99,314.652ZM1283.49,318.252C1280.72,324.108 1278.87,314.776 1283.49,318.252ZM1389.99,318.252C1386.67,324.39 1383.09,314.022 1389.99,318.252ZM1293.99,321.152C1286.7,330.204 1290.42,316.063 1293.99,321.152ZM1160.69,323.352C1177.61,330.796 1186.15,355.179 1162.29,336.399C1140.06,329.821 1127.72,317.688 1160.69,323.352ZM905.991,324.252C902.091,327.836 903.503,320.534 905.991,324.252ZM1279.99,324.252C1276.09,327.836 1277.5,320.534 1279.99,324.252ZM1258.59,327.952C1256.89,326.132 1259.75,324.32 1258.59,327.952ZM1273.99,327.752C1268.25,331.729 1277.39,321.439 1273.99,327.752ZM1290.99,326.252C1286.49,330.053 1289.43,323.448 1290.99,326.252ZM901.991,328.852C899.078,330.641 899.68,325.327 901.991,328.852ZM1455.19,328.952C1449.67,329.78 1456.84,327.249 1455.19,328.952ZM1488.39,331.452C1507.64,328.351 1559.31,374.726 1519.93,351.19C1501.55,342.787 1491.84,337.277 1479.59,330.752C1482.39,330.703 1487.13,327.394 1488.39,331.452ZM1276.29,332.752C1271.07,337.528 1272.31,328.628 1276.29,332.752ZM1126.99,335.352C1117.23,340.45 1122.22,327.825 1126.99,335.352ZM1303.19,332.952C1297.67,333.78 1304.84,331.249 1303.19,332.952ZM1330.79,338.052C1327.54,342.513 1326.95,332.886 1330.79,338.052ZM1077.89,339.752C1085.79,354.316 1061.3,333.596 1077.89,339.752ZM1117.49,339.252C1114.94,342.838 1116.38,335.568 1117.49,339.252ZM1137.59,341.852C1146.57,358.25 1145.75,363.195 1150.19,346.052C1166.82,353.858 1201.59,365.714 1181.29,389.252C1168.03,401.579 1154.54,365.15 1144.5,361.665C1142.66,372.242 1122.16,355.355 1115.29,348.252C1095.24,339.763 1135.04,338.42 1137.59,341.852ZM1305.99,340.152C1302.01,347.911 1303.26,334.575 1305.99,340.152ZM827.291,342.752C824.76,347.931 826.806,335.879 827.291,342.752ZM1384.79,341.452C1377.83,347.828 1381.99,336.034 1384.79,341.452ZM1253.99,347.352C1250.81,350.858 1252.17,342.247 1253.99,347.352ZM1307.29,347.152C1306.56,358.734 1293.21,338.572 1307.29,347.152ZM1105.99,351.752C1116.11,359.563 1172.25,388.272 1141.75,392.415C1131.56,393.828 1121.27,402.014 1115.19,396.252C1109.73,411.143 1145.74,393.698 1154.99,400.152C1154.7,411.022 1160.88,424.733 1150.57,430.527C1135.93,435.601 1135.57,432.95 1148.99,441.352C1142.21,446.291 1125.56,436.969 1129.29,431.852C1133.55,430.903 1105.7,428.341 1104.68,406.827C1113.57,396.638 1074.47,357.096 1093.09,388.252C1107.62,411.352 1065.36,397.841 1062.99,386.252C1065.07,368.302 1076.34,358.531 1088.37,364.527C1078.67,350.411 1094.87,346.121 1105.99,351.752ZM1010.29,352.352C1003.66,359.399 1004.9,344.485 1010.29,352.352ZM1295.99,352.252C1293.44,355.84 1293.44,348.665 1295.99,352.252ZM1036.79,353.852C1054.26,354.765 1034.27,385.535 1018.99,381.252C1008.93,372.668 984.874,376.288 977.753,369.077C997.814,360.354 1017.13,351 1036.79,353.852ZM1308.99,356.252C1318.34,367.711 1294.9,357.66 1308.99,356.252ZM1317.89,357.852C1307.84,362.963 1318.17,351.898 1317.89,357.852ZM1240.49,358.252C1239.2,362.173 1236.94,354.47 1240.49,358.252ZM1251.49,359.252C1248.94,362.838 1250.38,355.568 1251.49,359.252ZM1295.99,360.852C1293.08,362.641 1293.68,357.327 1295.99,360.852ZM874.191,362.452C869.692,363.451 877.349,357.847 874.191,362.452ZM1247.79,363.452C1243.95,368.619 1244.54,358.992 1247.79,363.452ZM1042.99,364.752C1040.55,370.005 1042.1,359.459 1042.99,364.752ZM1225.99,365.352C1220.38,369.968 1223.97,359.228 1225.99,365.352ZM1319.79,365.252C1320.08,373.05 1311.7,358.975 1319.79,365.252ZM1063.59,371.352C1068.9,396.386 1012.22,385.976 1048.29,373.952C1050.9,372.988 1068.81,358.01 1063.59,371.352ZM1289.99,367.152C1288.17,372.257 1286.81,363.646 1289.99,367.152ZM1296.59,368.952C1294.89,367.132 1297.75,365.32 1296.59,368.952ZM1047.69,368.952C1040.13,372.558 1051.71,363.573 1047.69,368.952ZM1225.99,369.752C1219.47,374.659 1228.04,364.577 1225.99,369.752ZM1043.49,371.252C1039.44,373.37 1041.15,367.697 1043.49,371.252ZM1195.19,374.452C1206.43,397.989 1181.52,364.463 1195.19,374.452ZM1225.49,375.252C1221.44,377.37 1223.15,371.697 1225.49,375.252ZM1247.19,374.952C1241.67,375.78 1248.84,373.249 1247.19,374.952ZM996.991,379.652C991.658,377.945 995.248,372.559 996.991,379.652ZM1259.49,378.252C1257,381.97 1255.59,374.668 1259.49,378.252ZM1241.19,381.752C1245.94,389.603 1225.62,374.037 1241.19,381.752ZM1250.39,380.752C1246.03,385.988 1245.83,375.543 1250.39,380.752ZM1001.09,383.652C992.443,384.15 1005.77,378.1 1001.09,383.652ZM888.091,386.552C884.821,388.99 891.344,381.123 888.091,386.552ZM1451.79,386.052C1448,390.75 1447.2,381.256 1451.79,386.052ZM1246.89,387.352C1279.41,414.318 1222.46,392.51 1246.89,387.352ZM1389.49,387.252C1385.59,390.836 1387,383.534 1389.49,387.252ZM1234.29,387.952C1230.29,395.988 1221.92,383.545 1234.29,387.952ZM1255.49,389.252C1246.23,391.994 1259.64,385.747 1255.49,389.252ZM1210.99,391.252C1206.98,393.066 1207.1,387.892 1210.99,391.252ZM1264.19,390.952C1258.67,391.78 1265.84,389.249 1264.19,390.952ZM985.191,392.952C979.667,393.78 986.844,391.249 985.191,392.952ZM951.991,394.852C947.825,396.655 949.716,391.445 951.991,394.852ZM1147.99,394.252C1142.75,397.937 1142.75,390.567 1147.99,394.252ZM1410.99,394.852C1406.98,396.666 1407.1,391.492 1410.99,394.852ZM1163.99,395.252C1160.09,398.836 1161.5,391.534 1163.99,395.252ZM1237.39,395.952C1243.21,408.002 1231.45,390.546 1237.39,395.952ZM1061.49,396.252C1056.04,403.651 1054.82,393.072 1061.49,396.252ZM1232.99,396.352C1230.08,398.141 1230.68,392.827 1232.99,396.352ZM996.991,397.852C991.548,403.879 989.898,390.899 996.991,397.852ZM1136.19,396.952C1130.67,397.78 1137.84,395.249 1136.19,396.952ZM1356.49,397.652C1362.13,404.696 1346.14,393.273 1356.49,397.652ZM1053.99,399.752C1055.77,404.945 1048.69,395.011 1053.99,399.752ZM1166.79,399.752C1162.22,411.204 1153.16,397.019 1166.79,399.752ZM1264.99,399.152C1263.17,404.257 1261.81,395.646 1264.99,399.152ZM1416.09,400.552C1433.1,409.304 1396.64,396.888 1416.09,400.552ZM1024.59,400.452C1042.15,420.555 1006.37,408.564 996.591,415.752C968.1,419.711 1016.36,390.831 1024.59,400.452ZM1214.79,403.652C1213.54,409.561 1210.44,395.215 1214.79,403.652ZM1349.99,404.852C1347.08,406.641 1347.68,401.327 1349.99,404.852ZM1059.29,405.652C1059.12,412.483 1053.01,400.7 1059.29,405.652ZM1377.99,406.852C1373.83,408.655 1375.72,403.445 1377.99,406.852ZM898.191,408.952C892.667,409.78 899.844,407.249 898.191,408.952ZM1221.99,411.352C1230.88,415.248 1244.09,435.947 1230.69,434.052C1203.99,433.712 1203.65,421.807 1221.99,411.352ZM1167.99,410.852C1163.83,412.655 1165.72,407.445 1167.99,410.852ZM1405.99,410.652C1403.55,417.532 1400.62,405.353 1405.99,410.652ZM1413.49,411.252C1408.12,412.851 1411.72,408.125 1413.49,411.252ZM1093.79,414.952C1089.58,420.169 1087.09,409.273 1093.79,414.952ZM1246.79,415.452C1250.92,422.8 1240.1,411.575 1246.79,415.452ZM1255.99,417.252C1249.65,426.634 1252.88,408.458 1255.99,417.252ZM1353.19,416.952C1347.67,417.78 1354.84,415.249 1353.19,416.952ZM1278.99,424.352C1272.81,425.25 1274.55,412.492 1278.99,424.352ZM1279.49,419.252C1275.59,422.836 1277,415.534 1279.49,419.252ZM1289.99,424.752C1292.4,433.963 1279.02,418.481 1289.99,424.752ZM1321.79,425.052C1318,429.75 1317.2,420.256 1321.79,425.052ZM1284.29,427.752C1282.37,435.667 1276.95,421.874 1284.29,427.752ZM1199.19,428.952C1193.67,429.78 1200.84,427.249 1199.19,428.952ZM1296.49,431.252C1309.76,435.566 1330.35,461.683 1325.39,466.752C1308.44,454.581 1302.76,455.559 1291.55,440.827C1277.26,436.199 1284.87,424.26 1296.49,431.252ZM1251.79,432.752C1268.01,431.682 1265.01,443.787 1257.99,437.252C1268.62,449.815 1284.04,457.311 1291.79,472.452C1299.75,448.796 1323.12,480.984 1328.49,493.652C1335.84,502.682 1364.98,548.845 1337.99,530.952C1328.89,514.557 1312.21,501.634 1299.72,489.652C1286.24,473.633 1265.09,458.917 1257.17,446.365C1259.23,441.834 1236.03,427.978 1251.79,432.752ZM1084.99,435.352C1077,440.012 1081.84,427.556 1084.99,435.352ZM1198.99,433.252C1207.81,446.726 1223.15,441.244 1226.76,451.272C1208.85,445.408 1213.34,449.553 1205.29,455.952C1188.76,456.777 1219.42,445.502 1194.09,451.502C1185.12,468.685 1162.05,463.724 1162.29,452.452C1175.94,449.225 1170.79,435.245 1187.39,441.752C1188.31,437.835 1195.7,432.007 1198.99,433.252ZM1211.99,436.252C1202.53,443.096 1216.69,428.073 1211.99,436.252ZM1493.19,435.952C1499.85,447.86 1481.71,428.662 1493.19,435.952ZM1180.99,437.352C1178.08,439.141 1178.68,433.827 1180.99,437.352ZM1239.79,439.352C1230.49,441.081 1240.21,435.651 1239.79,439.352ZM1070.99,440.252C1068.44,443.838 1069.88,436.568 1070.99,440.252ZM1185.49,441.252C1182.94,444.838 1184.38,437.568 1185.49,441.252ZM1494.99,442.852C1490.83,444.655 1492.72,439.445 1494.99,442.852ZM1128.59,446.352C1144.39,446.913 1116.52,451.756 1128.59,446.352ZM851.791,447.452C848.383,451.252 848.496,443.21 851.791,447.452ZM1025.99,448.252C1023.44,451.84 1023.44,444.665 1025.99,448.252ZM1254.99,449.752C1250.29,457.345 1250.5,441.877 1254.99,449.752ZM1007.39,452.852C1007.13,462.703 1001.36,443.967 1007.39,452.852ZM1039.79,453.852C1048.27,464.237 1024.99,446.926 1039.79,453.852ZM1140.99,456.352C1126.86,466.05 1138.84,448.696 1140.99,456.352ZM1197.99,454.852C1195.08,456.641 1195.68,451.327 1197.99,454.852ZM992.991,455.252C990.503,458.97 989.091,451.668 992.991,455.252ZM1015.49,455.252C1011.44,457.37 1013.15,451.697 1015.49,455.252ZM985.291,458.952C979.78,460.585 984.294,457.193 985.291,458.952ZM1143.99,460.352C1140.81,463.858 1142.17,455.247 1143.99,460.352ZM1206.89,461.952C1197.28,473.83 1205.09,454.6 1206.89,461.952ZM1129.59,463.252C1122.8,473.384 1111.05,460.348 1126.79,463.452C1123.89,460.541 1129.64,463.865 1129.59,463.252ZM1400.49,465.252C1396.59,468.836 1398,461.534 1400.49,465.252ZM1058.99,466.752C1056.17,471.919 1056.3,461.533 1058.99,466.752ZM1069.99,467.852C1067.08,469.641 1067.68,464.327 1069.99,467.852ZM1206.89,467.552C1222.05,470.694 1191.51,480.183 1201.39,467.052L1206.89,467.552ZM1066.79,468.952C1061.55,474.089 1058.89,464.218 1066.79,468.952ZM1397.49,469.252C1391.7,471.575 1398.14,473.652 1397.49,469.252ZM1331.59,470.452C1335.4,481.716 1352.97,497.638 1358.19,517.052C1343.01,516.345 1336.96,490.669 1328.99,477.252C1325.89,476.165 1325.92,464.792 1331.59,470.452ZM920.991,472.552C915.031,481.209 914.819,468.686 920.991,472.552ZM1070.99,474.252C1068.44,477.838 1069.88,470.568 1070.99,474.252ZM1145.39,475.752C1141.03,480.988 1140.83,470.543 1145.39,475.752ZM927.991,482.852C923.825,484.655 925.716,479.445 927.991,482.852ZM868.491,492.152C866.897,497.782 863.58,488.676 868.491,492.152ZM1043.19,492.952C1037.67,493.78 1044.84,491.249 1043.19,492.952ZM1216.69,493.752C1217.68,500.636 1211.58,487.991 1216.69,493.752ZM1025.89,496.652C1019.13,499.818 1019.63,494.871 1025.89,496.652ZM1187.49,497.252C1183.44,499.37 1185.15,493.697 1187.49,497.252ZM1429.39,498.152C1423.14,505.346 1426.78,493.626 1429.39,498.152ZM1191.49,499.252C1187.44,501.37 1189.15,495.697 1191.49,499.252ZM1024.29,503.652C1027.32,510.283 1015.49,500.745 1024.29,503.652ZM1002.39,509.752C997.287,514.805 1003.59,504.699 1002.39,509.752ZM1032.99,514.852C1029.74,518.346 1032.46,509.759 1032.99,514.852ZM1358.79,525.752C1357.47,534.273 1353.45,515.184 1358.79,525.752ZM1375.89,530.152C1387.91,539.285 1378.89,563.371 1373.99,537.052C1374.39,534.912 1368.85,526.52 1375.89,530.152ZM1180.19,534.952C1174.67,535.78 1181.84,533.249 1180.19,534.952ZM1350.99,539.852C1347.81,543.358 1349.17,534.747 1350.99,539.852ZM1356.59,548.152C1350.88,552.397 1356.09,538.321 1356.59,548.152ZM1168.99,548.652C1165.02,570.558 1153.65,540.015 1168.99,548.652ZM1167.99,562.152C1164.01,569.911 1165.26,556.575 1167.99,562.152ZM1212.99,566.352C1206.37,571.115 1204.55,563.403 1212.99,566.352ZM966.991,573.352C964.078,575.141 964.68,569.827 966.991,573.352Z" style="fill-rule:nonzero;"/>
        </g>
    </g>
</svg>
