<?xml version="1.0" encoding="UTF-8" standalone="no"?>
<!DOCTYPE svg PUBLIC "-//W3C//DTD SVG 1.1//EN" "http://www.w3.org/Graphics/SVG/1.1/DTD/svg11.dtd">
<svg width="100%" height="100%" viewBox="0 0 90 79" version="1.1" xmlns="http://www.w3.org/2000/svg" xmlns:xlink="http://www.w3.org/1999/xlink" xml:space="preserve" xmlns:serif="http://www.serif.com/" style="fill-rule:evenodd;clip-rule:evenodd;stroke-linejoin:round;stroke-miterlimit:2;">
    <g transform="matrix(1,0,0,1,0.00152108,-0.000448826)">
        <g transform="matrix(0.373741,0,0,0.373741,-0.000952591,0.000281081)">
            <circle cx="30.309" cy="76.744" r="1.006"/>
            <circle cx="63.065" cy="76.744" r="1.006"/>
            <path d="M69.375,26.281C69.092,27.496 68.709,28.662 68.254,29.787C69.365,33.789 75.187,51.896 90.646,56.229C108.053,61.108 114.146,45.624 109.641,48.563C105.135,51.502 97.764,52.192 88.067,34.859C82.309,24.566 75.936,20.305 69.903,19.109C70.096,21.456 69.937,23.869 69.375,26.281Z" style="fill-rule:nonzero;"/>
            <path d="M41.926,41.448C53.219,44.077 64.504,37.053 67.135,25.76C69.764,14.468 62.74,3.18 51.449,0.552C40.156,-2.077 28.869,4.945 26.238,16.238C23.607,27.532 30.631,38.817 41.926,41.448Z" style="fill-rule:nonzero;"/>
            <path d="M239.572,96.366C237.383,95.081 235.148,94.14 232.899,93.461C234.161,93.725 235.464,94.018 236.816,94.349C237.015,94.398 237.215,94.421 237.413,94.421C238.538,94.421 239.559,93.657 239.839,92.515C240.168,91.174 239.347,89.821 238.006,89.492C236.069,89.017 234.224,88.615 232.466,88.269C234.038,88.347 234.964,88.498 235.014,88.506C236.374,88.752 237.669,87.846 237.913,86.489C238.158,85.13 237.256,83.83 235.897,83.584C235.709,83.55 233.51,83.178 230.039,83.22C230.777,82.686 231.203,81.776 231.052,80.815C230.839,79.451 229.564,78.524 228.196,78.731C228.08,78.749 227.493,78.842 226.559,79.005C226.72,78.552 226.752,78.048 226.624,77.547C226.281,76.21 224.915,75.405 223.581,75.748C223.519,75.764 223.285,75.824 222.912,75.923C222.72,74.659 221.595,73.721 220.308,73.798C220.091,73.811 218.059,73.94 215.075,74.446C215.076,74.325 215.07,74.203 215.049,74.079C214.861,72.991 213.826,72.262 212.739,72.447C207.274,73.387 201.403,76.433 198.053,78.387C198.913,74.331 199.728,73.133 199.883,72.935C200.628,72.295 200.807,71.187 200.261,70.337C199.663,69.409 198.425,69.138 197.497,69.736C196.923,70.105 196.373,70.865 195.859,71.967C195.669,70.044 195.508,68.803 195.486,68.633C195.306,67.264 194.057,66.298 192.682,66.48C191.819,66.593 191.119,67.134 190.763,67.861C189.913,65.727 189.254,64.413 189.177,64.261C188.553,63.031 187.049,62.54 185.819,63.165C185.258,63.449 184.86,63.92 184.642,64.461C183.683,62.954 183.022,62.115 182.943,62.018C182.077,60.942 180.504,60.769 179.428,61.636C179.203,61.816 179.028,62.033 178.884,62.264C178.279,60.981 177.881,60.181 177.815,60.05C177.197,58.815 175.696,58.314 174.461,58.932C173.637,59.344 173.15,60.152 173.094,61.01C171.676,59.351 170.702,58.379 170.584,58.262C169.601,57.292 168.019,57.304 167.049,58.287C166.207,59.141 166.107,60.446 166.739,61.41C164.49,59.776 162.96,58.999 162.81,58.924C161.571,58.316 160.073,58.822 159.462,60.062C159.09,60.817 159.138,61.666 159.509,62.354C158.643,61.876 157.763,61.419 156.851,61.01C155.594,60.446 154.113,61.008 153.547,62.269C152.983,63.529 153.546,65.008 154.806,65.573C171.916,73.243 180.285,96.402 182.571,103.802C180.174,214.975 72.569,179.005 77.745,140.833C79.213,123.705 75.207,118.943 70.028,108.289C68.024,103.544 65.544,99.426 64.969,92.658C64.798,90.644 65.001,88.321 65.459,85.84C64.052,86.405 62.519,86.724 60.91,86.724C55.438,86.724 50.808,83.127 49.25,78.17C51.358,81.844 55.311,84.325 59.85,84.325C66.6,84.325 72.072,78.853 72.072,72.103C72.072,70.825 71.874,69.593 71.51,68.435C72.536,70.224 73.132,72.292 73.132,74.502C73.132,75.281 73.051,76.041 72.912,76.78C76.128,87.276 79.791,103.655 80.378,125.039C80.475,128.567 83.364,131.361 86.872,131.361C86.932,131.361 86.992,131.36 87.054,131.359C90.642,131.26 93.471,128.272 93.372,124.683C92.22,82.683 79.924,58.394 79.401,57.381C78.674,55.973 77.504,54.944 76.149,54.374C72.717,52.354 62.626,47.362 46.687,47.362C30.754,47.362 20.664,52.351 17.227,54.372C15.871,54.942 14.7,55.972 13.972,57.381C13.45,58.395 1.154,82.683 0.001,124.683C-0.098,128.271 2.731,131.26 6.319,131.359C6.381,131.36 6.44,131.361 6.501,131.361C10.009,131.361 12.898,128.567 12.995,125.039C13.578,103.788 17.249,87.383 20.469,76.842C20.322,76.084 20.24,75.304 20.24,74.503C20.24,72.293 20.835,70.225 21.862,68.436C21.498,69.594 21.3,70.826 21.3,72.104C21.3,78.854 26.772,84.326 33.522,84.326C38.062,84.326 42.015,81.845 44.122,78.171C42.564,83.129 37.934,86.725 32.462,86.725C30.853,86.725 29.321,86.406 27.915,85.841C28.373,88.322 28.576,90.646 28.405,92.659C27.575,102.422 22.779,106.665 21.173,115.239C17.075,129.075 2.542,208.738 89.743,209.501C214.604,210.594 184.998,134.679 197.148,105.767C204.606,101.139 222.438,92.108 237.041,100.676C238.23,101.375 239.762,100.977 240.462,99.785C241.162,98.596 240.763,97.064 239.572,96.366ZM44.329,145.858C46.714,145.858 48.647,143.625 48.647,145.3C48.647,146.975 46.714,148.331 44.329,148.331C41.944,148.331 40.011,146.974 40.011,145.3C40.011,143.626 41.945,145.858 44.329,145.858ZM62.678,145.858C65.063,145.858 66.996,143.625 66.996,145.3C66.996,146.975 65.063,148.331 62.678,148.331C60.293,148.331 58.36,146.974 58.36,145.3C58.36,143.626 60.293,145.858 62.678,145.858ZM62.931,136.126C62.931,134.452 64.864,136.684 67.249,136.684C69.634,136.684 71.567,134.451 71.567,136.126C71.567,137.801 69.634,139.157 67.249,139.157C64.864,139.157 62.931,137.8 62.931,136.126ZM62.979,79.026C61.617,79.026 60.512,77.922 60.512,76.56C60.512,75.198 61.616,74.094 62.979,74.094C64.342,74.094 65.446,75.198 65.446,76.56C65.445,77.922 64.341,79.026 62.979,79.026ZM46.686,110.17C47.307,110.17 47.811,111.625 47.811,113.42C47.811,115.215 47.307,116.67 46.686,116.67C46.065,116.67 45.561,115.215 45.561,113.42C45.561,111.625 46.065,110.17 46.686,110.17ZM30.394,79.026C29.032,79.026 27.928,77.922 27.928,76.56C27.928,75.198 29.032,74.094 30.394,74.094C31.756,74.094 32.861,75.198 32.861,76.56C32.861,77.922 31.757,79.026 30.394,79.026ZM29.281,156.404C26.916,156.712 24.824,155.616 24.608,153.956C24.392,152.296 26.597,154.26 28.962,153.952C31.327,153.644 32.955,151.18 33.171,152.841C33.388,154.5 31.646,156.096 29.281,156.404ZM30.401,142.777C28.016,142.777 26.083,141.42 26.083,139.746C26.083,138.072 28.016,140.304 30.401,140.304C32.786,140.304 34.719,138.071 34.719,139.746C34.719,141.42 32.786,142.777 30.401,142.777ZM35.696,169.111C35.111,167.542 37.702,168.959 39.937,168.127C42.172,167.294 43.203,164.527 43.788,166.096C44.373,167.665 43.035,169.612 40.801,170.444C38.566,171.276 36.281,170.679 35.696,169.111ZM44.205,183.906C41.735,184.226 39.55,183.079 39.325,181.344C39.1,179.609 41.403,181.663 43.873,181.344C46.343,181.024 48.047,178.452 48.271,180.187C48.496,181.921 46.675,183.586 44.205,183.906ZM52.18,158.9C49.795,158.9 47.862,157.543 47.862,155.869C47.862,154.195 49.795,156.427 52.18,156.427C54.565,156.427 56.498,154.194 56.498,155.869C56.498,157.542 54.565,158.9 52.18,158.9ZM60.962,191.341C58.79,191.862 56.733,191.048 56.367,189.523C56.001,187.998 58.25,189.609 60.421,189.088C62.593,188.567 63.866,186.111 64.232,187.636C64.598,189.162 63.134,190.82 60.962,191.341ZM66.423,176.118C64.433,177.131 62.242,176.82 61.531,175.423C60.82,174.026 63.382,175.068 65.372,174.054C67.362,173.041 68.027,170.356 68.739,171.753C69.451,173.15 68.413,175.105 66.423,176.118ZM66.886,159.315C66.546,157.676 68.892,159.469 71.227,158.985C73.562,158.501 75.001,155.922 75.341,157.561C75.681,159.2 74.064,160.922 71.729,161.406C69.394,161.89 67.226,160.954 66.886,159.315ZM76.451,199.059C74.32,199.729 72.212,199.059 71.741,197.564C71.27,196.069 73.625,197.52 75.756,196.85C77.887,196.18 78.986,193.642 79.457,195.138C79.928,196.634 78.582,198.389 76.451,199.059ZM80.673,179.743C78.683,180.756 76.492,180.445 75.781,179.048C75.07,177.651 77.632,178.693 79.622,177.679C81.612,176.666 82.277,173.981 82.989,175.378C83.701,176.775 82.663,178.73 80.673,179.743ZM90.581,182.354C90.067,180.873 92.463,182.254 94.573,181.522C96.683,180.79 97.708,178.22 98.222,179.702C98.736,181.183 97.442,182.978 95.333,183.71C93.222,184.443 91.095,183.835 90.581,182.354ZM96.743,197.738C94.596,198.354 92.505,197.632 92.072,196.125C91.639,194.618 93.957,196.128 96.103,195.512C98.25,194.896 99.413,192.386 99.846,193.893C100.28,195.4 98.89,197.122 96.743,197.738ZM107.064,204.043C105.441,204.281 103.99,203.55 103.823,202.41C103.656,201.271 105.194,202.597 106.817,202.36C108.44,202.122 109.533,200.41 109.7,201.549C109.867,202.689 108.687,203.805 107.064,204.043ZM112.189,184.838C110.566,185.076 109.115,184.345 108.948,183.205C108.781,182.066 110.319,183.392 111.942,183.155C113.565,182.917 114.658,181.205 114.825,182.344C114.992,183.484 113.812,184.6 112.189,184.838ZM120.019,196.995C117.889,197.667 115.78,197 115.308,195.505C114.836,194.01 117.192,195.459 119.322,194.786C121.452,194.114 122.549,191.575 123.021,193.07C123.493,194.566 122.149,196.323 120.019,196.995ZM132.661,189.337C130.549,190.063 128.423,189.449 127.914,187.966C127.404,186.483 129.796,187.872 131.908,187.146C134.02,186.42 135.053,183.854 135.563,185.337C136.072,186.82 134.773,188.611 132.661,189.337ZM144.81,197.118C143.307,197.774 141.715,197.449 141.254,196.394C140.794,195.338 142.626,196.214 144.13,195.559C145.633,194.903 146.238,192.964 146.699,194.02C147.159,195.075 146.314,196.462 144.81,197.118ZM148.285,182.479C146.823,183.223 145.215,182.995 144.692,181.968C144.169,180.941 146.051,181.707 147.513,180.963C148.975,180.219 149.463,178.247 149.985,179.273C150.507,180.299 149.747,181.735 148.285,182.479ZM183.407,72.64C183.393,72.634 183.379,72.628 183.365,72.621C183.313,72.488 183.26,72.355 183.208,72.223C183.274,72.362 183.34,72.497 183.407,72.64ZM167.586,178.244C165.946,178.26 164.607,177.339 164.596,176.188C164.585,175.036 165.929,176.559 167.57,176.543C169.21,176.527 170.525,174.979 170.536,176.13C170.547,177.281 169.226,178.228 167.586,178.244ZM171.753,166.443C170.138,166.157 168.991,165.006 169.192,163.872C169.393,162.738 170.434,164.482 172.05,164.768C173.665,165.054 175.242,163.773 175.041,164.907C174.84,166.041 173.368,166.729 171.753,166.443ZM182.919,159.16C181.279,159.176 179.94,158.255 179.929,157.104C179.918,155.952 181.262,157.475 182.903,157.459C184.543,157.443 185.858,155.895 185.869,157.046C185.88,158.198 184.56,159.145 182.919,159.16ZM186.42,145.693C184.805,145.407 183.658,144.256 183.859,143.122C184.06,141.988 185.101,143.732 186.716,144.018C188.331,144.304 189.908,143.023 189.707,144.157C189.506,145.291 188.035,145.979 186.42,145.693ZM187.086,129.806C185.446,129.822 184.107,128.901 184.096,127.75C184.085,126.598 185.429,128.121 187.07,128.105C188.71,128.089 190.025,126.541 190.036,127.692C190.047,128.844 188.726,129.79 187.086,129.806ZM188.441,115.63C186.826,115.344 185.679,114.193 185.88,113.059C186.081,111.925 187.122,113.669 188.738,113.955C190.353,114.241 191.93,112.96 191.729,114.094C191.528,115.229 190.056,115.916 188.441,115.63Z" style="fill-rule:nonzero;"/>
        </g>
    </g>
</svg>
