<?xml version="1.0" encoding="UTF-8" standalone="no"?>
<!DOCTYPE svg PUBLIC "-//W3C//DTD SVG 1.1//EN" "http://www.w3.org/Graphics/SVG/1.1/DTD/svg11.dtd">
<svg width="100%" height="100%" viewBox="0 0 45 96" version="1.1" xmlns="http://www.w3.org/2000/svg" xmlns:xlink="http://www.w3.org/1999/xlink" xml:space="preserve" xmlns:serif="http://www.serif.com/" style="fill-rule:evenodd;clip-rule:evenodd;stroke-linejoin:round;stroke-miterlimit:2;">
    <g transform="matrix(0.167837,0,0,0.167837,-25.2824,2.8335e-05)">
        <g>
            <g>
                <path d="M408.478,128.091C395.696,124.901 382.093,123.122 370.563,117.32C359.792,111.898 349.955,103.122 342.081,93.811C331.298,81.069 324.52,65.394 308.408,56.736C302.782,53.713 299.514,43.843 297.902,36.503C296.214,28.825 293.541,25.81 285.834,26.842C281.187,27.466 276.421,27.528 271.722,27.421C248.437,26.891 241.86,23.3 234.018,2.627C232.908,-0.298 230.342,-0.866 228.135,1.354C225.968,3.533 223.823,5.65 221.758,7.772C219.575,10.016 215.332,12.562 212.892,14.524C209.171,17.519 207.188,22.345 209.298,28.396C209.428,28.775 209.547,29.15 209.661,29.522C209.853,30.146 208.082,32.304 205.899,34.548C204.887,35.584 203.916,36.649 202.986,37.735C200.95,40.11 197.743,44.03 195.479,46.193C192.509,49.028 189.449,51.444 185.981,52.345C174.949,55.213 174.19,60.628 176.442,67.559C177.409,70.534 176.116,73.708 173.158,74.724C170.93,75.491 168.951,76.266 167.364,77.527C165.438,79.053 163.843,80.991 162.305,83.003C160.404,85.488 161.342,87.94 164.427,88.491C166.907,88.931 169.392,89.356 171.889,89.69C172.578,89.784 173.468,88.181 174.19,88.242C175.773,88.381 177.352,88.601 178.927,88.846C181.534,89.25 182.448,91.449 180.959,93.709C180.012,95.141 178.992,96.459 177.67,97.295C169.722,102.338 161.509,106.961 153.149,111.755C150.436,113.314 149.836,116.557 151.774,119.013C161.656,131.538 162.051,134.084 155.417,146.928C153.981,149.707 155.242,152.608 158.085,153.913C170.256,159.507 170.047,168.646 163.246,178.765C161.5,181.36 162.116,184.399 164.87,185.885C174.503,191.083 175.364,193.89 175.535,211.936C175.564,215.065 178.118,217.591 181.214,218.04C193.581,219.839 197.714,227.11 190.733,241.639C189.99,243.181 193.699,249.175 195.645,249.329C211.7,250.635 211.736,259.097 206.322,270.782C205.984,271.509 205.889,272.349 205.873,273.157C205.845,274.5 208.04,276.944 210.826,278.367C216.155,281.092 221.695,283.52 222.634,287.138C223.034,288.672 223.429,290.21 223.825,291.752C224.482,294.302 222.507,295.914 219.43,295.347C216.868,294.873 214.31,294.401 211.747,293.931C202.73,291.451 193.387,289.639 182.955,287.432C179.895,286.783 177.933,288.721 178.61,291.777C184.604,318.734 193.147,343.52 212.237,366.707C214.224,369.122 216.554,373.472 217.488,376.458C217.72,377.2 217.961,377.943 218.21,378.686C219.201,381.652 218.451,385.647 216.097,387.262C213.743,388.877 212.678,392.252 212.866,395.373C213.564,406.98 202.388,415.891 203.07,427.511C203.261,430.767 204.547,435.317 202.931,437.103C190.352,450.999 201.099,465.941 201.687,479.833C202.299,494.301 207.538,509.482 214.172,522.628C236.102,566.097 298.546,583.236 337.433,556.92C340.024,555.166 341.954,553.53 341.912,553.51C341.876,553.486 342.226,553.306 342.676,553.057C342.949,552.906 343.21,552.743 343.455,552.559C344.711,551.617 345.972,550.67 347.232,549.728C347.71,549.361 348.187,548.99 348.665,548.623C349.456,548.011 350.398,547.215 350.746,546.819C351.088,546.423 353.058,544.987 354.572,543.045C355.429,541.94 356.245,540.683 357.082,539.369C379.497,504.13 365.299,457.541 328.33,445.505C312.618,440.389 297.644,443.412 285.853,453.939C275.053,463.584 269.418,476.635 273.049,492.197C276.069,505.143 285.596,510.932 296.954,513.401C309.3,516.086 321.173,512.429 328.125,501.674C331.063,497.133 330.867,488.545 328.59,483.322C326.967,479.597 319.594,476.945 314.605,476.61C312.324,476.46 309.909,478.296 307.905,480.984C306.037,483.494 307.636,486.133 310.754,486.422C311.985,486.536 313.222,486.654 314.458,486.769C317.575,487.059 320.366,488.455 320.696,489.882C321.027,491.31 318.925,493.387 316.065,494.652C312.487,496.239 308.909,497.757 305.392,497.634C301.904,497.516 295.473,491.8 295.816,489.356C296.632,483.53 299.334,475.557 303.768,473.249C309.504,470.263 320.456,468.883 324.188,472.277C331.117,478.577 337.925,488.586 338.571,497.5C340.06,518.133 324.939,530.847 302.891,533.833C268.611,538.476 245.367,511.209 249.793,474.799C252.294,454.224 263.094,437.826 277.357,425.142C278.765,423.889 280.086,422.617 281.336,421.328C283.449,419.137 286.403,417.428 288.105,417.227C289.076,417.113 290.084,416.892 291.132,416.553C292.617,416.072 294.086,415.574 295.542,415.06C297.97,414.204 302.372,412.821 305.428,412.152C313.442,410.389 321.075,408.912 326.857,404.824C329.219,403.155 329.558,398.627 329.602,393.681C329.631,390.552 330.647,385.672 331.332,382.62C332.128,379.074 332.368,375.451 332.368,371.8C332.368,368.67 333.715,364.08 335.399,361.448C343.694,348.503 349.035,334.039 350.161,317.593C351.295,301.065 346.652,284.137 344.596,267.393C343.858,261.379 343.295,255.329 342.201,249.375C341.581,246.005 340.173,242.757 338.908,239.534C336.579,233.597 334.387,227.576 331.585,221.864C329.234,217.07 327.04,210.036 323.106,208.612C313.951,205.295 309.466,200.836 311.506,191.028C313.452,181.68 308.205,179.216 300.335,179.543C290.474,179.955 285.635,175.842 285.08,165.516C285.018,164.366 284.301,162.962 283.268,161.644C281.791,159.759 280.869,156.209 280.359,153.219C280.061,151.481 279.445,149.783 278.654,148.009C278.388,147.413 278.074,146.866 277.727,146.352C277.14,145.483 278.18,144.291 280.102,143.455C281.293,142.937 282.444,142.386 283.525,141.819C292.746,136.996 300.417,136.96 310.22,140.403C326.369,146.083 343.578,148.702 359.882,154.01C368.454,156.801 376.54,161.068 383.13,164.41C385.92,165.826 390.163,165.291 392.611,163.341C400.363,157.16 408.001,151.492 414.521,144.744C422.077,136.933 419.197,130.764 408.478,128.091Z" style="fill:rgb(174,15,202);fill-rule:nonzero;stroke:black;stroke-width:5.96px;"/>
            </g>
        </g>
    </g>
</svg>
