<?xml version="1.0" encoding="UTF-8" standalone="no"?>
<!DOCTYPE svg PUBLIC "-//W3C//DTD SVG 1.1//EN" "http://www.w3.org/Graphics/SVG/1.1/DTD/svg11.dtd">
<svg width="100%" height="100%" viewBox="0 0 100 100" version="1.1" xmlns="http://www.w3.org/2000/svg" xmlns:xlink="http://www.w3.org/1999/xlink" xml:space="preserve" xmlns:serif="http://www.serif.com/" style="fill-rule:evenodd;clip-rule:evenodd;stroke-linejoin:round;stroke-miterlimit:2;">
    <g transform="matrix(0.222314,0,0,0.226646,3.8943,4.58792)">
        <path d="M94.8,36.6C93.6,33 84.9,33.3 73.4,37.8C61.9,42.3 60.2,42 59,35.1C58,29.5 50.9,19.8 55.7,13.7L57.4,11.3C59.4,8.8 55.8,5.1 52.8,6.1C52.7,6.1 52.5,6.2 52.4,6.2C48.8,7.7 38.9,15.2 40.7,38.4C40.7,38.4 42.2,42.6 34.1,42.6C26,42.6 17.6,43.8 10.6,40.2C3.7,36.6 2.5,47.5 10.9,52.1C19.3,56.7 29.9,59.5 35.9,58.9C35.9,58.9 38.3,59.5 37.1,64.3C36.1,68.1 34.4,80.2 30.2,84.5C26,88.8 20,90.2 23.6,93.5C27.2,96.8 48.9,88.1 53.7,65.5L54.6,65.5C54.6,65.5 61.1,72.7 70.5,79.5C73,81.3 74.9,83.8 75.8,86.8C76.1,87.8 76.3,88.7 76.3,89.6C76.3,92.9 83.2,94.7 82.9,83C82.6,71.3 70.2,61.2 70.5,57.3C70.8,53.4 80.4,50.4 85.2,43.5C90,36.6 96,40.2 94.8,36.6ZM11.8,47.4C11.2,47.4 10.7,46.9 10.7,46.3C10.7,45.7 11.2,45.2 11.8,45.2C12.4,45.2 12.9,45.7 12.9,46.3C12.9,47 12.4,47.4 11.8,47.4ZM19.3,49.6C18.7,49.6 18.2,49.1 18.2,48.5C18.2,47.9 18.7,47.4 19.3,47.4C19.9,47.4 20.4,47.9 20.4,48.5C20.4,49.1 19.9,49.6 19.3,49.6ZM26.9,51.1C26.3,51.1 25.8,50.6 25.8,50C25.8,49.4 26.3,48.9 26.9,48.9C27.5,48.9 28,49.4 28,50C27.9,50.6 27.4,51.1 26.9,51.1ZM34.4,51.4C33.8,51.4 33.3,50.9 33.3,50.3C33.3,49.7 33.8,49.2 34.4,49.2C35,49.2 35.5,49.7 35.5,50.3C35.4,51 35,51.4 34.4,51.4ZM31.4,89C30.8,89 30.3,88.5 30.3,87.9C30.3,87.3 30.8,86.8 31.4,86.8C32,86.8 32.5,87.3 32.5,87.9C32.4,88.6 31.9,89 31.4,89ZM37.2,82.4C36.6,82.4 36.1,81.9 36.1,81.3C36.1,80.7 36.6,80.2 37.2,80.2C37.8,80.2 38.3,80.7 38.3,81.3C38.3,81.9 37.8,82.4 37.2,82.4ZM52.8,43C52.8,44.1 51.9,45 50.8,45C49.7,45 48.8,44.1 48.8,43C48.8,41.9 49.7,41 50.8,41C51.9,41 52.8,41.9 52.8,43ZM48.5,34.4C48.5,33.8 49,33.3 49.6,33.3C50.2,33.3 50.7,33.8 50.7,34.4C50.7,35 50.2,35.5 49.6,35.5C49,35.5 48.5,35 48.5,34.4ZM50.7,12.3C51.3,12.3 51.8,12.8 51.8,13.4C51.8,14 51.3,14.5 50.7,14.5C50.1,14.5 49.6,14 49.6,13.4C49.7,12.8 50.2,12.3 50.7,12.3ZM48.5,19.3C49.1,19.3 49.6,19.8 49.6,20.4C49.6,21 49.1,21.5 48.5,21.5C47.9,21.5 47.4,21 47.4,20.4C47.5,19.8 47.9,19.3 48.5,19.3ZM48.5,26.4C49.1,26.4 49.6,26.9 49.6,27.5C49.6,28.1 49.1,28.6 48.5,28.6C47.9,28.6 47.4,28.1 47.4,27.5C47.5,26.8 47.9,26.4 48.5,26.4ZM41.2,74.7C40.6,74.7 40.1,74.2 40.1,73.6C40.1,73 40.6,72.5 41.2,72.5C41.8,72.5 42.3,73 42.3,73.6C42.3,74.3 41.8,74.7 41.2,74.7ZM42.2,53C41.1,53 40.2,52.1 40.2,51C40.2,49.9 41.1,49 42.2,49C43.3,49 44.2,49.9 44.2,51C44.2,52.1 43.3,53 42.2,53ZM44.2,67.2C43.6,67.2 43.1,66.7 43.1,66.1C43.1,65.5 43.6,65 44.2,65C44.8,65 45.3,65.5 45.3,66.1C45.3,66.7 44.8,67.2 44.2,67.2ZM47.4,61.4C46.3,61.4 45.4,60.5 45.4,59.4C45.4,58.3 46.3,57.4 47.4,57.4C48.5,57.4 49.4,58.3 49.4,59.4C49.4,60.5 48.5,61.4 47.4,61.4ZM52.2,55.1C50.4,55.1 48.9,53.6 48.9,51.8C48.9,50 50.4,48.5 52.2,48.5C54,48.5 55.5,50 55.5,51.8C55.5,53.6 54,55.1 52.2,55.1ZM78.7,81.4C79.3,81.4 79.8,81.9 79.8,82.5C79.8,83.1 79.3,83.6 78.7,83.6C78.1,83.6 77.6,83.1 77.6,82.5C77.7,81.8 78.2,81.4 78.7,81.4ZM74.9,73.7C75.5,73.7 76,74.2 76,74.8C76,75.4 75.5,75.9 74.9,75.9C74.3,75.9 73.8,75.4 73.8,74.8C73.8,74.2 74.3,73.7 74.9,73.7ZM59.6,59.4C58.5,59.4 57.6,58.5 57.6,57.4C57.6,56.3 58.5,55.4 59.6,55.4C60.7,55.4 61.6,56.3 61.6,57.4C61.7,58.5 60.8,59.4 59.6,59.4ZM62.3,50.4C61.2,50.4 60.3,49.5 60.3,48.4C60.3,47.3 61.2,46.4 62.3,46.4C63.4,46.4 64.3,47.3 64.3,48.4C64.3,49.5 63.4,50.4 62.3,50.4ZM65.3,64.2C64.7,64.2 64.2,63.7 64.2,63.1C64.2,62.5 64.7,62 65.3,62C65.9,62 66.4,62.5 66.4,63.1C66.4,63.7 65.9,64.2 65.3,64.2ZM70.9,69C70.9,69.6 70.4,70.1 69.8,70.1C69.2,70.1 68.7,69.6 68.7,69C68.7,68.4 69.2,67.9 69.8,67.9C70.4,68 70.9,68.5 70.9,69ZM69.9,47.4C69.3,47.4 68.8,46.9 68.8,46.3C68.8,45.7 69.3,45.2 69.9,45.2C70.5,45.2 71,45.7 71,46.3C70.9,47 70.4,47.4 69.9,47.4ZM75.9,44C75.3,44 74.8,43.5 74.8,42.9C74.8,42.3 75.3,41.8 75.9,41.8C76.5,41.8 77,42.3 77,42.9C77,43.5 76.5,44 75.9,44ZM82,39.9C81.4,39.9 80.9,39.4 80.9,38.8C80.9,38.2 81.4,37.7 82,37.7C82.6,37.7 83.1,38.2 83.1,38.8C83.1,39.4 82.6,39.9 82,39.9ZM88.1,37.6C87.5,37.6 87,37.1 87,36.5C87,35.9 87.5,35.4 88.1,35.4C88.7,35.4 89.2,35.9 89.2,36.5C89.2,37.1 88.7,37.6 88.1,37.6Z" style="fill-rule:nonzero;"/>
    </g>
</svg>
